<?xml version="1.0" encoding="UTF-8"?>
<!DOCTYPE svg PUBLIC "-//W3C//DTD SVG 1.1//EN" "http://www.w3.org/Graphics/SVG/1.1/DTD/svg11.dtd">
<svg xmlns="http://www.w3.org/2000/svg" version="1.1" width="1698px" height="848px" style="shape-rendering:geometricPrecision; text-rendering:geometricPrecision; image-rendering:optimizeQuality; fill-rule:evenodd; clip-rule:evenodd" xmlns:xlink="http://www.w3.org/1999/xlink">
<g><path style="opacity:1" fill="#fefefe" d="M -0.5,-0.5 C 565.5,-0.5 1131.5,-0.5 1697.5,-0.5C 1697.5,282.167 1697.5,564.833 1697.5,847.5C 1131.5,847.5 565.5,847.5 -0.5,847.5C -0.5,564.833 -0.5,282.167 -0.5,-0.5 Z"/></g>
<g><path style="opacity:1" fill="#8590c9" d="M 724.5,206.5 C 724.5,206.833 724.5,207.167 724.5,207.5C 654.213,217.731 603.379,254.731 572,318.5C 559.208,345.624 553.375,374.29 554.5,404.5C 554.621,415.919 555.621,427.252 557.5,438.5C 490.572,424.741 447.406,385.074 428,319.5C 414.718,256.685 431.551,203.519 478.5,160C 527.964,120.09 582.63,111.09 642.5,133C 678.542,147.88 705.875,172.38 724.5,206.5 Z"/></g>
<g><path style="opacity:1" fill="#ebe993" d="M 966.5,256.5 C 969.141,272.171 969.141,287.838 966.5,303.5C 961.954,322.929 952.954,339.929 939.5,354.5C 939.167,354.5 938.833,354.5 938.5,354.5C 924.015,298.324 891.349,255.991 840.5,227.5C 824.184,218.889 806.851,212.889 788.5,209.5C 788.5,209.167 788.5,208.833 788.5,208.5C 819.478,178.731 855.811,169.564 897.5,181C 933.22,194.552 956.22,219.719 966.5,256.5 Z"/></g>
<g><path style="opacity:1" fill="#e7d9d8" d="M 788.5,208.5 C 788.5,208.833 788.5,209.167 788.5,209.5C 785.791,212.208 783.458,215.208 781.5,218.5C 780.833,218.833 780.167,219.167 779.5,219.5C 763.869,217.873 748.203,217.373 732.5,218C 731.584,218.278 730.918,218.778 730.5,219.5C 729.833,218.5 729.167,217.5 728.5,216.5C 727.439,213.378 726.105,210.378 724.5,207.5C 724.5,207.167 724.5,206.833 724.5,206.5C 745.882,204.86 767.215,205.527 788.5,208.5 Z"/></g>
<g><path style="opacity:1" fill="#797db6" d="M 724.5,207.5 C 726.105,210.378 727.439,213.378 728.5,216.5C 728.38,217.586 727.713,218.253 726.5,218.5C 672.748,226.781 629.914,252.781 598,296.5C 569.621,339.229 560.121,385.895 569.5,436.5C 569.36,438.03 568.693,439.03 567.5,439.5C 564.14,439.384 560.807,439.051 557.5,438.5C 555.621,427.252 554.621,415.919 554.5,404.5C 553.375,374.29 559.208,345.624 572,318.5C 603.379,254.731 654.213,217.731 724.5,207.5 Z"/></g>
<g><path style="opacity:1" fill="#dfd57f" d="M 788.5,209.5 C 806.851,212.889 824.184,218.889 840.5,227.5C 891.349,255.991 924.015,298.324 938.5,354.5C 935.306,357.272 932.306,360.272 929.5,363.5C 929.167,363.5 928.833,363.5 928.5,363.5C 914.302,301.798 878.302,257.965 820.5,232C 808.493,227.536 796.326,223.703 784,220.5C 782.624,220.316 781.791,219.649 781.5,218.5C 783.458,215.208 785.791,212.208 788.5,209.5 Z"/></g>
<g><path style="opacity:1" fill="#fefefe" d="M 779.5,219.5 C 759.246,249.522 754.746,281.856 766,316.5C 780.039,350.706 804.872,372.706 840.5,382.5C 842.877,383.887 845.543,384.721 848.5,385C 862.928,386.072 877.262,385.406 891.5,383C 892.056,382.617 892.389,382.117 892.5,381.5C 905.539,377.647 917.539,371.647 928.5,363.5C 928.833,363.5 929.167,363.5 929.5,363.5C 930.149,372.511 930.983,381.511 932,390.5C 933.406,426.671 925.24,460.338 907.5,491.5C 891.438,444.625 859.438,414.792 811.5,402C 804.74,400.745 798.074,399.579 791.5,398.5C 782.009,397.342 772.342,397.175 762.5,398C 757.569,398.645 752.903,399.811 748.5,401.5C 715.154,409.423 688.654,427.423 669,455.5C 651.42,482.876 643.92,512.876 646.5,545.5C 646.785,547.288 646.452,548.955 645.5,550.5C 606.904,523.338 582.237,486.671 571.5,440.5C 628.18,442.069 674.347,421.069 710,377.5C 744.642,328.479 751.475,275.812 730.5,219.5C 730.918,218.778 731.584,218.278 732.5,218C 748.203,217.373 763.869,217.873 779.5,219.5 Z"/></g>
<g><path style="opacity:1" fill="#8590c9" d="M 728.5,216.5 C 729.167,217.5 729.833,218.5 730.5,219.5C 751.475,275.812 744.642,328.479 710,377.5C 674.347,421.069 628.18,442.069 571.5,440.5C 569.901,440.768 568.568,440.434 567.5,439.5C 568.693,439.03 569.36,438.03 569.5,436.5C 560.121,385.895 569.621,339.229 598,296.5C 629.914,252.781 672.748,226.781 726.5,218.5C 727.713,218.253 728.38,217.586 728.5,216.5 Z"/></g>
<g><path style="opacity:1" fill="#ebe993" d="M 781.5,218.5 C 781.791,219.649 782.624,220.316 784,220.5C 796.326,223.703 808.493,227.536 820.5,232C 878.302,257.965 914.302,301.798 928.5,363.5C 917.539,371.647 905.539,377.647 892.5,381.5C 875.234,385.061 857.9,385.395 840.5,382.5C 804.872,372.706 780.039,350.706 766,316.5C 754.746,281.856 759.246,249.522 779.5,219.5C 780.167,219.167 780.833,218.833 781.5,218.5 Z"/></g>
<g><path style="opacity:1" fill="#f6f5ce" d="M 966.5,256.5 C 967.887,258.877 968.721,261.543 969,264.5C 969.848,277.205 969.515,289.871 968,302.5C 967.617,303.056 967.117,303.389 966.5,303.5C 969.141,287.838 969.141,272.171 966.5,256.5 Z"/></g>
<g><path style="opacity:1" fill="#ac8fcd" d="M 1064.5,307.5 C 1074.99,306.506 1085.65,306.172 1096.5,306.5C 1096.68,310.122 1096.01,313.456 1094.5,316.5C 1094.7,313.482 1095.04,310.482 1095.5,307.5C 1085.17,307.5 1074.83,307.5 1064.5,307.5 Z"/></g>
<g><path style="opacity:1" fill="#a98dcc" d="M 1119.5,307.5 C 1130.65,306.505 1141.99,306.172 1153.5,306.5C 1153.78,308.415 1153.45,310.081 1152.5,311.5C 1152.5,310.167 1152.5,308.833 1152.5,307.5C 1141.5,307.5 1130.5,307.5 1119.5,307.5 Z"/></g>
<g><path style="opacity:1" fill="#4a0e94" d="M 1119.5,307.5 C 1130.5,307.5 1141.5,307.5 1152.5,307.5C 1152.5,308.833 1152.5,310.167 1152.5,311.5C 1149.51,329.801 1146.84,348.135 1144.5,366.5C 1142.78,369.845 1142.12,373.511 1142.5,377.5C 1141.24,383.659 1140.24,389.992 1139.5,396.5C 1138.48,399.974 1137.81,403.64 1137.5,407.5C 1136.94,412.516 1136.28,417.516 1135.5,422.5C 1134.48,425.974 1133.81,429.64 1133.5,433.5C 1131.65,443.092 1130.32,452.758 1129.5,462.5C 1127.78,465.845 1127.12,469.511 1127.5,473.5C 1127.5,474.833 1127.5,476.167 1127.5,477.5C 1119.83,477.5 1112.17,477.5 1104.5,477.5C 1105.31,468.81 1106.31,460.143 1107.5,451.5C 1108.99,447.764 1109.66,443.764 1109.5,439.5C 1110.53,435.261 1111.2,430.928 1111.5,426.5C 1112.77,424.095 1113.43,421.428 1113.5,418.5C 1115.93,403.901 1117.93,389.235 1119.5,374.5C 1120.77,372.095 1121.43,369.428 1121.5,366.5C 1123.02,356.201 1124.35,345.867 1125.5,335.5C 1126.4,334.791 1126.74,333.791 1126.5,332.5C 1123.17,332.5 1119.83,332.5 1116.5,332.5C 1116.5,330.833 1116.5,329.167 1116.5,327.5C 1117.09,320.639 1118.09,313.972 1119.5,307.5 Z"/></g>
<g><path style="opacity:1" fill="#4a0e94" d="M 1064.5,307.5 C 1074.83,307.5 1085.17,307.5 1095.5,307.5C 1095.04,310.482 1094.7,313.482 1094.5,316.5C 1093.74,321.82 1093.07,327.153 1092.5,332.5C 1082.81,332.168 1073.14,332.502 1063.5,333.5C 1052.41,338.685 1047.91,347.352 1050,359.5C 1058.5,374.501 1067.5,389.167 1077,403.5C 1084.24,418.754 1084.24,434.088 1077,449.5C 1070.14,463.365 1059.3,472.532 1044.5,477C 1032.17,477.5 1019.84,477.667 1007.5,477.5C 1008.17,469.124 1009.17,460.79 1010.5,452.5C 1020.84,452.666 1031.17,452.5 1041.5,452C 1055.72,447.062 1061.22,437.229 1058,422.5C 1049.67,409.167 1041.33,395.833 1033,382.5C 1029.99,377.486 1027.82,372.152 1026.5,366.5C 1026.35,360.131 1026.68,353.797 1027.5,347.5C 1032.25,327.086 1044.58,313.752 1064.5,307.5 Z"/></g>
<g><path style="opacity:1" fill="#eae3f2" d="M 1262.5,332.5 C 1232.09,332.175 1201.76,332.508 1171.5,333.5C 1186.32,332.167 1201.48,331.501 1217,331.5C 1232.34,331.5 1247.5,331.833 1262.5,332.5 Z"/></g>
<g><path style="opacity:1" fill="#a485c9" d="M 1116.5,327.5 C 1116.5,329.167 1116.5,330.833 1116.5,332.5C 1119.83,332.5 1123.17,332.5 1126.5,332.5C 1126.74,333.791 1126.4,334.791 1125.5,335.5C 1122.66,333.598 1119.33,332.931 1115.5,333.5C 1115.21,331.265 1115.54,329.265 1116.5,327.5 Z"/></g>
<g><path style="opacity:1" fill="#4b1094" d="M 1262.5,332.5 C 1274.57,334.066 1280.9,340.899 1281.5,353C 1275.34,394.482 1269.34,435.982 1263.5,477.5C 1255.83,477.5 1248.17,477.5 1240.5,477.5C 1242.24,462.465 1244.24,447.465 1246.5,432.5C 1247.79,428.733 1248.46,424.733 1248.5,420.5C 1251.89,401.72 1254.89,382.72 1257.5,363.5C 1257.61,361.626 1256.94,360.126 1255.5,359C 1248.92,358.19 1242.42,358.357 1236,359.5C 1233.72,374.161 1231.56,388.828 1229.5,403.5C 1228.08,405.515 1227.41,407.848 1227.5,410.5C 1224.23,432.478 1221.06,454.478 1218,476.5C 1210.25,477.482 1202.42,477.815 1194.5,477.5C 1195.24,470.992 1196.24,464.659 1197.5,458.5C 1198.52,455.026 1199.19,451.36 1199.5,447.5C 1200.38,441.526 1201.05,435.526 1201.5,429.5C 1202.77,427.095 1203.43,424.428 1203.5,421.5C 1206.26,401.099 1209.09,380.766 1212,360.5C 1211.5,360 1211,359.5 1210.5,359C 1203.84,358.5 1197.17,358.334 1190.5,358.5C 1189.09,367.482 1187.75,376.482 1186.5,385.5C 1185.48,388.974 1184.81,392.64 1184.5,396.5C 1179.98,423.413 1175.98,450.413 1172.5,477.5C 1164.83,477.5 1157.17,477.5 1149.5,477.5C 1152.5,456.84 1155.5,436.173 1158.5,415.5C 1159.77,413.095 1160.43,410.428 1160.5,407.5C 1163.68,382.731 1167.35,358.065 1171.5,333.5C 1201.76,332.508 1232.09,332.175 1262.5,332.5 Z"/></g>
<g><path style="opacity:1" fill="#4b0f94" d="M 1358.5,447.5 C 1357.08,449.515 1356.41,451.848 1356.5,454.5C 1354.28,465.888 1347.62,473.388 1336.5,477C 1324.5,477.667 1312.5,477.667 1300.5,477C 1292.47,472.122 1288.47,464.955 1288.5,455.5C 1293.17,425.157 1297.84,394.824 1302.5,364.5C 1303.77,362.095 1304.43,359.428 1304.5,356.5C 1306.65,345.511 1312.99,338.011 1323.5,334C 1334.79,332.508 1346.13,332.174 1357.5,333C 1369.79,337.736 1374.62,346.569 1372,359.5C 1367.56,388.878 1363.06,418.211 1358.5,447.5 Z"/></g>
<g><path style="opacity:1" fill="#4b0f94" d="M 1430.5,416.5 C 1431.52,413.026 1432.19,409.36 1432.5,405.5C 1432.5,404.167 1432.5,402.833 1432.5,401.5C 1433.92,399.485 1434.59,397.152 1434.5,394.5C 1435.51,384.787 1436.84,375.12 1438.5,365.5C 1438.41,363.036 1437.74,360.87 1436.5,359C 1429.92,358.19 1423.42,358.357 1417,359.5C 1415.82,370.224 1414.32,380.891 1412.5,391.5C 1410.78,394.845 1410.12,398.511 1410.5,402.5C 1407.09,424.541 1403.43,446.541 1399.5,468.5C 1398.53,470.948 1398.19,473.615 1398.5,476.5C 1391.17,476.5 1383.83,476.5 1376.5,476.5C 1376.83,473.833 1377.17,471.167 1377.5,468.5C 1377.72,464.821 1378.06,461.154 1378.5,457.5C 1379.12,457.389 1379.62,457.056 1380,456.5C 1380.5,453.518 1380.66,450.518 1380.5,447.5C 1386.19,409.509 1392.02,371.509 1398,333.5C 1414.76,332.342 1431.59,332.175 1448.5,333C 1458.2,336.741 1462.86,343.741 1462.5,354C 1457.1,395.258 1451.1,436.425 1444.5,477.5C 1436.83,477.5 1429.17,477.5 1421.5,477.5C 1424.37,457.14 1427.37,436.806 1430.5,416.5 Z"/></g>
<g><path style="opacity:1" fill="#b59cd3" d="M 1027.5,347.5 C 1026.68,353.797 1026.35,360.131 1026.5,366.5C 1025.84,364.022 1025.5,361.355 1025.5,358.5C 1025.29,354.531 1025.96,350.865 1027.5,347.5 Z"/></g>
<g><path style="opacity:1" fill="#e7d9d9" d="M 938.5,354.5 C 938.833,354.5 939.167,354.5 939.5,354.5C 948.936,404.034 942.103,451.034 919,495.5C 916.477,499.233 913.977,502.899 911.5,506.5C 911.737,505.209 911.404,504.209 910.5,503.5C 910.768,501.901 910.434,500.568 909.5,499.5C 909.44,496.659 908.774,493.993 907.5,491.5C 925.24,460.338 933.406,426.671 932,390.5C 930.983,381.511 930.149,372.511 929.5,363.5C 932.306,360.272 935.306,357.272 938.5,354.5 Z"/></g>
<g><path style="opacity:1" fill="#faf9fc" d="M 1331.5,451.5 C 1325.44,451.746 1319.44,451.413 1313.5,450.5C 1312.85,449.726 1312.52,448.726 1312.5,447.5C 1316.94,419.253 1321.44,390.92 1326,362.5C 1326.47,361.069 1327.3,359.903 1328.5,359C 1334.5,358.333 1340.5,358.333 1346.5,359C 1347.89,359.956 1348.56,361.289 1348.5,363C 1344.04,391.179 1339.54,419.346 1335,447.5C 1334.34,449.324 1333.17,450.657 1331.5,451.5 Z"/></g>
<g><path style="opacity:1" fill="#a585ca" d="M 1304.5,356.5 C 1304.43,359.428 1303.77,362.095 1302.5,364.5C 1302.29,361.505 1302.96,358.838 1304.5,356.5 Z"/></g>
<g><path style="opacity:1" fill="#b398d1" d="M 1121.5,366.5 C 1121.43,369.428 1120.77,372.095 1119.5,374.5C 1119.29,371.505 1119.96,368.838 1121.5,366.5 Z"/></g>
<g><path style="opacity:1" fill="#9e7cc5" d="M 1144.5,366.5 C 1144.19,370.36 1143.52,374.026 1142.5,377.5C 1142.12,373.511 1142.78,369.845 1144.5,366.5 Z"/></g>
<g><path style="opacity:1" fill="#f7f6d4" d="M 892.5,381.5 C 892.389,382.117 892.056,382.617 891.5,383C 877.262,385.406 862.928,386.072 848.5,385C 845.543,384.721 842.877,383.887 840.5,382.5C 857.9,385.395 875.234,385.061 892.5,381.5 Z"/></g>
<g><path style="opacity:1" fill="#c1aada" d="M 1186.5,385.5 C 1186.88,389.489 1186.22,393.155 1184.5,396.5C 1184.81,392.64 1185.48,388.974 1186.5,385.5 Z"/></g>
<g><path style="opacity:1" fill="#fccccd" d="M 791.5,398.5 C 777.041,397.94 762.708,398.94 748.5,401.5C 752.903,399.811 757.569,398.645 762.5,398C 772.342,397.175 782.009,397.342 791.5,398.5 Z"/></g>
<g><path style="opacity:1" fill="#9975c2" d="M 1412.5,391.5 C 1412.19,395.36 1411.52,399.026 1410.5,402.5C 1410.12,398.511 1410.78,394.845 1412.5,391.5 Z"/></g>
<g><path style="opacity:1" fill="#faa1a3" d="M 791.5,398.5 C 798.074,399.579 804.74,400.745 811.5,402C 859.438,414.792 891.438,444.625 907.5,491.5C 908.774,493.993 909.44,496.659 909.5,499.5C 908.59,497.981 907.757,496.315 907,494.5C 864.297,558.266 804.463,587.433 727.5,582C 699.302,578.396 673.302,568.896 649.5,553.5C 648.893,553.624 648.56,553.957 648.5,554.5C 647.833,551.5 647.167,548.5 646.5,545.5C 643.92,512.876 651.42,482.876 669,455.5C 688.654,427.423 715.154,409.423 748.5,401.5C 762.708,398.94 777.041,397.94 791.5,398.5 Z"/></g>
<g><path style="opacity:1" fill="#a98bcc" d="M 1434.5,394.5 C 1434.59,397.152 1433.92,399.485 1432.5,401.5C 1432.41,398.848 1433.08,396.515 1434.5,394.5 Z"/></g>
<g><path style="opacity:1" fill="#bca4d7" d="M 1139.5,396.5 C 1139.88,400.489 1139.22,404.155 1137.5,407.5C 1137.81,403.64 1138.48,399.974 1139.5,396.5 Z"/></g>
<g><path style="opacity:1" fill="#a07fc6" d="M 1229.5,403.5 C 1229.59,406.152 1228.92,408.485 1227.5,410.5C 1227.41,407.848 1228.08,405.515 1229.5,403.5 Z"/></g>
<g><path style="opacity:1" fill="#c4aedc" d="M 1432.5,405.5 C 1432.19,409.36 1431.52,413.026 1430.5,416.5C 1430.34,413.482 1430.5,410.482 1431,407.5C 1431.28,406.584 1431.78,405.918 1432.5,405.5 Z"/></g>
<g><path style="opacity:1" fill="#9f7dc5" d="M 1160.5,407.5 C 1160.43,410.428 1159.77,413.095 1158.5,415.5C 1158.29,412.505 1158.96,409.838 1160.5,407.5 Z"/></g>
<g><path style="opacity:1" fill="#a585ca" d="M 1113.5,418.5 C 1113.43,421.428 1112.77,424.095 1111.5,426.5C 1111.29,423.505 1111.96,420.838 1113.5,418.5 Z"/></g>
<g><path style="opacity:1" fill="#d9cbe8" d="M 1248.5,420.5 C 1248.46,424.733 1247.79,428.733 1246.5,432.5C 1246.08,428.183 1246.75,424.183 1248.5,420.5 Z"/></g>
<g><path style="opacity:1" fill="#b8a0d5" d="M 1203.5,421.5 C 1203.43,424.428 1202.77,427.095 1201.5,429.5C 1201.29,426.505 1201.96,423.838 1203.5,421.5 Z"/></g>
<g><path style="opacity:1" fill="#c3addb" d="M 1135.5,422.5 C 1135.88,426.489 1135.22,430.155 1133.5,433.5C 1133.81,429.64 1134.48,425.974 1135.5,422.5 Z"/></g>
<g><path style="opacity:1" fill="#e8d9d9" d="M 557.5,438.5 C 560.807,439.051 564.14,439.384 567.5,439.5C 568.568,440.434 569.901,440.768 571.5,440.5C 582.237,486.671 606.904,523.338 645.5,550.5C 646.452,548.955 646.785,547.288 646.5,545.5C 647.167,548.5 647.833,551.5 648.5,554.5C 649.383,559.132 650.05,563.798 650.5,568.5C 600.926,538.572 569.926,495.239 557.5,438.5 Z"/></g>
<g><path style="opacity:1" fill="#d8c9e7" d="M 1109.5,439.5 C 1109.66,443.764 1108.99,447.764 1107.5,451.5C 1107.08,447.183 1107.75,443.183 1109.5,439.5 Z"/></g>
<g><path style="opacity:1" fill="#b196d0" d="M 1313.5,450.5 C 1319.44,451.413 1325.44,451.746 1331.5,451.5C 1326.02,452.652 1320.35,452.818 1314.5,452C 1313.94,451.617 1313.61,451.117 1313.5,450.5 Z"/></g>
<g><path style="opacity:1" fill="#8b63ba" d="M 1358.5,447.5 C 1358.59,450.152 1357.92,452.485 1356.5,454.5C 1356.41,451.848 1357.08,449.515 1358.5,447.5 Z"/></g>
<g><path style="opacity:1" fill="#aa8ccc" d="M 1199.5,447.5 C 1199.19,451.36 1198.52,455.026 1197.5,458.5C 1197.12,454.511 1197.78,450.845 1199.5,447.5 Z"/></g>
<g><path style="opacity:1" fill="#8459b5" d="M 1380.5,447.5 C 1380.66,450.518 1380.5,453.518 1380,456.5C 1379.62,457.056 1379.12,457.389 1378.5,457.5C 1378.75,453.96 1379.42,450.627 1380.5,447.5 Z"/></g>
<g><path style="opacity:1" fill="#9975c2" d="M 1129.5,462.5 C 1129.19,466.36 1128.52,470.026 1127.5,473.5C 1127.12,469.511 1127.78,465.845 1129.5,462.5 Z"/></g>
<g><path style="opacity:1" fill="#af93cf" d="M 1377.5,468.5 C 1377.17,471.167 1376.83,473.833 1376.5,476.5C 1376.5,476.833 1376.5,477.167 1376.5,477.5C 1375.19,474.373 1375.52,471.373 1377.5,468.5 Z"/></g>
<g><path style="opacity:1" fill="#6b38a7" d="M 1399.5,468.5 C 1399.5,471.5 1399.5,474.5 1399.5,477.5C 1391.83,477.5 1384.17,477.5 1376.5,477.5C 1376.5,477.167 1376.5,476.833 1376.5,476.5C 1383.83,476.5 1391.17,476.5 1398.5,476.5C 1398.19,473.615 1398.53,470.948 1399.5,468.5 Z"/></g>
<g><path style="opacity:1" fill="#ef8f91" d="M 909.5,499.5 C 909.665,503.182 909.499,506.848 909,510.5C 884.034,546.913 850.534,572.079 808.5,586C 764.343,598.487 720.676,597.153 677.5,582C 669.138,578.054 660.804,574.221 652.5,570.5C 652.167,569.5 651.5,568.833 650.5,568.5C 650.05,563.798 649.383,559.132 648.5,554.5C 648.56,553.957 648.893,553.624 649.5,553.5C 673.302,568.896 699.302,578.396 727.5,582C 804.463,587.433 864.297,558.266 907,494.5C 907.757,496.315 908.59,497.981 909.5,499.5 Z"/></g>
<g><path style="opacity:1" fill="#f9a1a3" d="M 909.5,499.5 C 910.434,500.568 910.768,501.901 910.5,503.5C 913.364,522.89 913.031,542.223 909.5,561.5C 898.382,605.864 871.715,637.031 829.5,655C 822.092,657.498 814.759,660.164 807.5,663C 802.316,663.174 797.316,663.674 792.5,664.5C 779.428,664.902 766.428,664.236 753.5,662.5C 709.235,653.08 677.402,627.747 658,586.5C 655.863,581.255 654.03,575.922 652.5,570.5C 660.804,574.221 669.138,578.054 677.5,582C 720.676,597.153 764.343,598.487 808.5,586C 850.534,572.079 884.034,546.913 909,510.5C 909.499,506.848 909.665,503.182 909.5,499.5 Z"/></g>
<g><path style="opacity:1" fill="#fbc3c5" d="M 910.5,503.5 C 911.404,504.209 911.737,505.209 911.5,506.5C 913.426,519.09 913.926,531.757 913,544.5C 912.642,550.462 911.475,556.129 909.5,561.5C 913.031,542.223 913.364,522.89 910.5,503.5 Z"/></g>
<g><path style="opacity:1" fill="#fcd4d5" d="M 753.5,662.5 C 766.428,664.236 779.428,664.902 792.5,664.5C 783.009,665.658 773.342,665.825 763.5,665C 759.867,664.851 756.534,664.018 753.5,662.5 Z"/></g>
</svg>
