<?xml version="1.0" encoding="UTF-8"?>
<!DOCTYPE svg PUBLIC "-//W3C//DTD SVG 1.1//EN" "http://www.w3.org/Graphics/SVG/1.1/DTD/svg11.dtd">
<svg xmlns="http://www.w3.org/2000/svg" version="1.1" width="1698px" height="848px" style="shape-rendering:geometricPrecision; text-rendering:geometricPrecision; image-rendering:optimizeQuality; fill-rule:evenodd; clip-rule:evenodd" xmlns:xlink="http://www.w3.org/1999/xlink">
<g><path style="opacity:1" fill="#fefefe" d="M -0.5,-0.5 C 565.5,-0.5 1131.5,-0.5 1697.5,-0.5C 1697.5,282.167 1697.5,564.833 1697.5,847.5C 1131.5,847.5 565.5,847.5 -0.5,847.5C -0.5,564.833 -0.5,282.167 -0.5,-0.5 Z"/></g>
<g><path style="opacity:1" fill="#8590c9" d="M 706.5,172.5 C 706.5,172.833 706.5,173.167 706.5,173.5C 701.821,173.334 697.155,173.501 692.5,174C 685.947,175.703 679.281,176.87 672.5,177.5C 672.5,178.5 672.5,179.5 672.5,180.5C 662.951,182.257 653.618,184.757 644.5,188C 637.549,192.07 630.216,195.237 622.5,197.5C 609.455,205.375 596.789,213.542 584.5,222C 581.976,223.69 579.976,225.857 578.5,228.5C 573.025,230.391 569.025,233.891 566.5,239C 561.355,241.314 557.688,245.147 555.5,250.5C 549.937,253.218 545.937,257.552 543.5,263.5C 541.57,265.455 539.403,267.121 537,268.5C 534.68,273.984 531.347,278.651 527,282.5C 526.667,283.833 526.333,285.167 526,286.5C 523.791,287.92 521.791,289.587 520,291.5C 519.286,294.595 518.286,297.595 517,300.5C 514.286,305.292 511.286,309.959 508,314.5C 505.612,322.562 502.279,330.228 498,337.5C 496.694,345.041 494.86,352.375 492.5,359.5C 491.5,359.5 490.5,359.5 489.5,359.5C 482.739,399.002 481.739,438.669 486.5,478.5C 482.858,477.92 479.191,477.42 475.5,477C 457.135,471.221 439.135,464.388 421.5,456.5C 420.738,455.372 420.071,454.205 419.5,453C 416.246,452.75 413.246,451.75 410.5,450C 405.359,445.527 399.692,441.86 393.5,439C 390.272,433.623 385.606,429.789 379.5,427.5C 373.833,421.44 368.166,415.44 362.5,409.5C 360.437,406.612 358.603,403.612 357,400.5C 355.989,399.663 354.822,399.33 353.5,399.5C 349.861,394.235 346.694,388.568 344,382.5C 342.989,381.663 341.822,381.33 340.5,381.5C 341.109,377.995 339.942,375.328 337,373.5C 335.356,367.377 332.522,361.877 328.5,357C 323.865,343.739 319.532,330.405 315.5,317C 309.775,288.237 309.275,259.404 314,230.5C 316.744,222.387 318.744,214.054 320,205.5C 323.05,199.764 325.383,193.764 327,187.5C 331.391,180.627 334.891,173.294 337.5,165.5C 339.978,164.278 340.978,162.278 340.5,159.5C 342.592,159.439 344.092,158.439 345,156.5C 347.644,151.034 350.477,145.701 353.5,140.5C 358.028,138.461 361.028,134.961 362.5,130C 367.821,127.867 371.487,124.201 373.5,119C 379.171,113.192 385.504,108.358 392.5,104.5C 399.906,96.567 408.906,90.9004 419.5,87.5C 420.652,85.1818 422.319,83.3484 424.5,82C 434.072,79.3768 443.072,75.7101 451.5,71C 465.308,67.951 478.975,64.451 492.5,60.5C 514.324,58.4687 535.991,59.4687 557.5,63.5C 568.685,66.8653 580.018,69.6987 591.5,72C 600.539,76.433 609.873,80.2664 619.5,83.5C 623.199,88.6849 628.199,91.8516 634.5,93C 637.6,96.4016 641.267,99.0682 645.5,101C 646.907,104.607 649.574,106.607 653.5,107C 654.833,108.667 656.167,110.333 657.5,112C 660.22,114.381 663.22,116.381 666.5,118C 668.213,119.925 669.547,122.092 670.5,124.5C 673.975,126.797 676.475,129.797 678,133.5C 683.487,136.124 686.82,140.457 688,146.5C 689.333,147.167 690.667,147.833 692,148.5C 695.632,153.431 698.465,158.765 700.5,164.5C 701.325,165.386 702.325,165.719 703.5,165.5C 704.088,168.063 705.088,170.396 706.5,172.5 Z"/></g>
<g><path style="opacity:1" fill="#ebe993" d="M 1027.5,252.5 C 1027.67,264.838 1027.5,277.171 1027,289.5C 1024.89,294.974 1023.72,300.641 1023.5,306.5C 1020.41,315.57 1017.07,324.57 1013.5,333.5C 1006.32,345.207 998.652,356.54 990.5,367.5C 989.5,367.5 988.5,367.5 987.5,367.5C 987.5,365.833 987.5,364.167 987.5,362.5C 986.5,362.5 985.5,362.5 984.5,362.5C 984.577,355.623 983.244,349.123 980.5,343C 979.32,337.829 978.32,332.663 977.5,327.5C 976.022,327.762 974.689,327.429 973.5,326.5C 970.703,319.642 968.37,312.642 966.5,305.5C 965.167,305.5 963.833,305.5 962.5,305.5C 961.242,302.306 960.576,298.973 960.5,295.5C 959.5,295.5 958.5,295.5 957.5,295.5C 957.705,291.242 955.872,288.242 952,286.5C 950.938,283.659 949.604,280.992 948,278.5C 943.67,272.342 938.837,266.675 933.5,261.5C 932.213,255.972 928.88,252.306 923.5,250.5C 920.585,245.416 916.585,241.583 911.5,239C 910.624,236.854 909.291,235.021 907.5,233.5C 901.139,228.33 894.473,223.497 887.5,219C 885.833,217.167 884.167,215.333 882.5,213.5C 879.839,212.501 877.172,211.501 874.5,210.5C 873.833,209.5 873.167,208.5 872.5,207.5C 868.455,206.255 864.789,204.422 861.5,202C 860.207,201.51 858.873,201.343 857.5,201.5C 857.762,200.022 857.429,198.689 856.5,197.5C 852.647,195.894 848.647,194.728 844.5,194C 841.559,191.893 838.559,189.893 835.5,188C 826.216,186.264 817.216,183.764 808.5,180.5C 808.5,179.5 808.5,178.5 808.5,177.5C 802.738,177.564 797.071,176.897 791.5,175.5C 791.5,175.167 791.5,174.833 791.5,174.5C 794.16,171.867 796.827,169.2 799.5,166.5C 803.531,165.687 805.864,163.354 806.5,159.5C 807.552,159.649 808.552,159.483 809.5,159C 814.13,155.122 819.13,151.788 824.5,149C 829.787,146.849 835.121,145.016 840.5,143.5C 841.528,140.286 843.862,138.452 847.5,138C 878.375,131.429 909.041,132.096 939.5,140C 940.337,141.011 940.67,142.178 940.5,143.5C 947.234,145.197 953.901,147.531 960.5,150.5C 964.867,152.682 968.867,155.515 972.5,159C 973.337,160.011 973.67,161.178 973.5,162.5C 979.361,163.183 983.361,166.349 985.5,172C 991,173.5 994.5,177 996,182.5C 999.952,184.808 1002.62,188.142 1004,192.5C 1008.26,195.276 1010.59,199.276 1011,204.5C 1012,205.167 1013,205.833 1014,206.5C 1016.15,214.478 1019.15,222.145 1023,229.5C 1024.66,237.153 1026.16,244.82 1027.5,252.5 Z"/></g>
<g><path style="opacity:1" fill="#e7d8d8" d="M 791.5,174.5 C 791.5,174.833 791.5,175.167 791.5,175.5C 790.292,176.234 788.959,176.567 787.5,176.5C 787.643,178.262 787.309,179.929 786.5,181.5C 784.062,182.931 782.396,184.931 781.5,187.5C 780.833,187.833 780.167,188.167 779.5,188.5C 758.884,186.586 738.218,186.086 717.5,187C 716.263,187.232 715.263,187.732 714.5,188.5C 713.9,187.1 712.9,186.1 711.5,185.5C 709.535,181.66 707.868,177.66 706.5,173.5C 706.5,173.167 706.5,172.833 706.5,172.5C 734.884,170.734 763.217,171.401 791.5,174.5 Z"/></g>
<g><path style="opacity:1" fill="#797db6" d="M 706.5,173.5 C 707.868,177.66 709.535,181.66 711.5,185.5C 711.209,186.649 710.376,187.316 709,187.5C 694.018,190.819 679.018,194.152 664,197.5C 651.53,202.987 639.03,208.321 626.5,213.5C 621.365,217.723 615.698,221.223 609.5,224C 608.687,225.803 607.52,227.303 606,228.5C 598.602,230.24 592.769,234.24 588.5,240.5C 584.455,241.709 581.455,244.209 579.5,248C 572.376,252.399 566.21,257.899 561,264.5C 559.066,268.936 555.899,272.27 551.5,274.5C 548.898,278.706 546.564,283.039 544.5,287.5C 542.766,289.234 540.766,290.568 538.5,291.5C 533.538,301.089 528.871,310.756 524.5,320.5C 522.467,322.965 520.633,325.632 519,328.5C 516.116,337.253 512.616,345.753 508.5,354C 506.618,365.528 503.951,376.861 500.5,388C 498.491,409.787 497.991,431.62 499,453.5C 499.767,462.245 500.934,470.912 502.5,479.5C 501.5,479.5 500.5,479.5 499.5,479.5C 495.19,478.92 490.857,478.586 486.5,478.5C 481.739,438.669 482.739,399.002 489.5,359.5C 490.5,359.5 491.5,359.5 492.5,359.5C 494.86,352.375 496.694,345.041 498,337.5C 502.279,330.228 505.612,322.562 508,314.5C 511.286,309.959 514.286,305.292 517,300.5C 518.286,297.595 519.286,294.595 520,291.5C 521.791,289.587 523.791,287.92 526,286.5C 526.333,285.167 526.667,283.833 527,282.5C 531.347,278.651 534.68,273.984 537,268.5C 539.403,267.121 541.57,265.455 543.5,263.5C 545.937,257.552 549.937,253.218 555.5,250.5C 557.688,245.147 561.355,241.314 566.5,239C 569.025,233.891 573.025,230.391 578.5,228.5C 579.976,225.857 581.976,223.69 584.5,222C 596.789,213.542 609.455,205.375 622.5,197.5C 630.216,195.237 637.549,192.07 644.5,188C 653.618,184.757 662.951,182.257 672.5,180.5C 672.5,179.5 672.5,178.5 672.5,177.5C 679.281,176.87 685.947,175.703 692.5,174C 697.155,173.501 701.821,173.334 706.5,173.5 Z"/></g>
<g><path style="opacity:1" fill="#dfd57f" d="M 791.5,175.5 C 797.071,176.897 802.738,177.564 808.5,177.5C 808.5,178.5 808.5,179.5 808.5,180.5C 817.216,183.764 826.216,186.264 835.5,188C 838.559,189.893 841.559,191.893 844.5,194C 848.647,194.728 852.647,195.894 856.5,197.5C 857.429,198.689 857.762,200.022 857.5,201.5C 858.873,201.343 860.207,201.51 861.5,202C 864.789,204.422 868.455,206.255 872.5,207.5C 873.167,208.5 873.833,209.5 874.5,210.5C 877.172,211.501 879.839,212.501 882.5,213.5C 884.167,215.333 885.833,217.167 887.5,219C 894.473,223.497 901.139,228.33 907.5,233.5C 909.291,235.021 910.624,236.854 911.5,239C 916.585,241.583 920.585,245.416 923.5,250.5C 928.88,252.306 932.213,255.972 933.5,261.5C 938.837,266.675 943.67,272.342 948,278.5C 949.604,280.992 950.938,283.659 952,286.5C 955.872,288.242 957.705,291.242 957.5,295.5C 958.5,295.5 959.5,295.5 960.5,295.5C 960.576,298.973 961.242,302.306 962.5,305.5C 963.833,305.5 965.167,305.5 966.5,305.5C 968.37,312.642 970.703,319.642 973.5,326.5C 974.689,327.429 976.022,327.762 977.5,327.5C 978.32,332.663 979.32,337.829 980.5,343C 983.244,349.123 984.577,355.623 984.5,362.5C 985.5,362.5 986.5,362.5 987.5,362.5C 987.5,364.167 987.5,365.833 987.5,367.5C 984.626,370.949 981.293,373.949 977.5,376.5C 975.549,376.773 974.049,376.107 973,374.5C 970.616,365.322 968.616,355.989 967,346.5C 963.16,341.189 960.827,335.189 960,328.5C 958.233,327.183 956.899,325.516 956,323.5C 953.748,316.497 950.581,309.997 946.5,304C 945.328,302.161 943.828,300.661 942,299.5C 941.186,293.61 938.186,289.277 933,286.5C 932.122,283.291 930.789,280.291 929,277.5C 926.948,276.277 924.781,275.277 922.5,274.5C 920.572,271.212 918.739,267.879 917,264.5C 915.4,263.134 913.567,262.134 911.5,261.5C 909.316,255.641 905.316,251.975 899.5,250.5C 898.833,248.5 898.167,246.5 897.5,244.5C 896.448,244.649 895.448,244.483 894.5,244C 892.439,241.937 890.106,240.27 887.5,239C 886.55,236.41 884.884,234.41 882.5,233C 877.759,231.971 874.092,229.471 871.5,225.5C 868.696,223.812 865.696,222.645 862.5,222C 860.031,220.173 857.698,218.173 855.5,216C 849.251,214.232 843.585,211.399 838.5,207.5C 834.643,206.577 830.809,205.577 827,204.5C 821.179,201.841 815.346,199.007 809.5,196C 800.549,194.176 791.549,192.676 782.5,191.5C 781.754,190.264 781.421,188.93 781.5,187.5C 782.396,184.931 784.062,182.931 786.5,181.5C 787.309,179.929 787.643,178.262 787.5,176.5C 788.959,176.567 790.292,176.234 791.5,175.5 Z"/></g>
<g><path style="opacity:1" fill="#fefefe" d="M 779.5,188.5 C 779.657,189.873 779.49,191.207 779,192.5C 775.668,194.001 773.168,196.334 771.5,199.5C 769.697,206.602 766.697,213.102 762.5,219C 761.131,222.012 760.464,225.179 760.5,228.5C 756.967,235.622 754.967,243.289 754.5,251.5C 754.167,257.5 753.833,263.5 753.5,269.5C 753.504,275.872 754.171,281.872 755.5,287.5C 755.504,291.027 755.837,294.527 756.5,298C 759.261,305.801 761.261,313.801 762.5,322C 763.098,323.301 764.098,324.135 765.5,324.5C 768.055,331.277 770.888,337.944 774,344.5C 775.586,345.376 777.086,346.376 778.5,347.5C 780.536,351.044 782.369,354.711 784,358.5C 785.684,360.706 787.851,362.206 790.5,363C 793.376,367.086 796.709,370.753 800.5,374C 804.59,374.256 806.923,376.422 807.5,380.5C 811.836,382.771 816.17,384.938 820.5,387C 821.255,389.133 822.588,390.8 824.5,392C 830.109,393.82 835.776,395.32 841.5,396.5C 841.281,397.675 841.614,398.675 842.5,399.5C 853.963,403.925 865.963,406.258 878.5,406.5C 883.624,407.829 889.124,408.495 895,408.5C 906.962,408.07 918.795,406.57 930.5,404C 935.095,402.198 939.762,400.698 944.5,399.5C 944.5,398.5 944.5,397.5 944.5,396.5C 948.673,396.333 952.34,395 955.5,392.5C 956.78,391.069 958.447,390.402 960.5,390.5C 960.33,389.178 960.663,388.011 961.5,387C 965.887,386.271 969.553,384.271 972.5,381C 974.134,380.506 975.801,380.34 977.5,380.5C 978.898,396.131 979.898,411.798 980.5,427.5C 980.007,443.207 979.007,458.874 977.5,474.5C 976.167,474.5 974.833,474.5 973.5,474.5C 972.065,485.649 969.898,496.649 967,507.5C 965.511,510.667 963.845,513.667 962,516.5C 961.952,521.252 960.286,525.252 957,528.5C 956.5,530.5 956,532.5 955.5,534.5C 952.978,538.937 950.311,543.27 947.5,547.5C 944.382,540.7 941.716,533.7 939.5,526.5C 937.587,523.563 935.587,520.73 933.5,518C 932.41,513.723 930.743,509.723 928.5,506C 923.152,502.154 919.652,496.988 918,490.5C 915.591,488.401 912.924,486.734 910,485.5C 907.868,480.516 904.701,476.183 900.5,472.5C 894.325,467.818 888.325,462.985 882.5,458C 881.207,457.51 879.873,457.343 878.5,457.5C 878.5,456.167 878.5,454.833 878.5,453.5C 875.129,452.677 871.796,451.511 868.5,450C 866.551,447.586 864.218,445.586 861.5,444C 854.901,441.855 848.235,440.022 841.5,438.5C 841.714,436.856 841.38,435.356 840.5,434C 828.648,431.144 816.648,428.978 804.5,427.5C 802.628,425.938 800.295,424.938 797.5,424.5C 777.019,422.292 757.019,423.959 737.5,429.5C 729.759,430.782 722.093,432.448 714.5,434.5C 714.5,435.833 714.5,437.167 714.5,438.5C 709.627,438.766 704.96,439.932 700.5,442C 694.403,445.378 688.403,449.045 682.5,453C 681.207,453.49 679.873,453.657 678.5,453.5C 678.649,454.552 678.483,455.552 678,456.5C 673.488,460.541 668.655,464.041 663.5,467C 659.668,470.058 656.668,473.724 654.5,478C 652.409,479.726 650.076,480.893 647.5,481.5C 647.649,482.552 647.483,483.552 647,484.5C 639.924,491.659 634.258,499.659 630,508.5C 628.989,509.337 627.822,509.67 626.5,509.5C 623.641,518.08 620.974,526.746 618.5,535.5C 616.418,535.472 614.584,536.139 613,537.5C 608.674,554.932 605.841,572.599 604.5,590.5C 603.5,590.5 602.5,590.5 601.5,590.5C 601.5,600.167 601.5,609.833 601.5,619.5C 602.5,619.5 603.5,619.5 604.5,619.5C 604.5,622.167 604.5,624.833 604.5,627.5C 603.448,627.649 602.448,627.483 601.5,627C 600.5,625.333 599.5,623.667 598.5,622C 593.833,619.333 589.167,616.667 584.5,614C 583.038,611.37 581.371,608.87 579.5,606.5C 576.506,605.338 573.84,603.671 571.5,601.5C 568.821,596.989 565.321,593.323 561,590.5C 559.758,585.423 556.591,582.089 551.5,580.5C 549.608,575.965 547.441,571.631 545,567.5C 542.864,565.567 540.531,563.901 538,562.5C 536.926,558.695 535.592,555.029 534,551.5C 529.568,544.963 525.401,538.297 521.5,531.5C 518.235,520.976 513.901,510.976 508.5,501.5C 507.572,494.477 506.572,487.477 505.5,480.5C 523.205,480.531 540.872,479.697 558.5,478C 565.742,475.635 573.076,473.635 580.5,472C 580.957,471.586 581.291,471.086 581.5,470.5C 585.112,469.453 588.779,468.62 592.5,468C 601.627,464.458 610.627,460.624 619.5,456.5C 622.293,452.929 625.96,450.595 630.5,449.5C 635.274,445.271 640.607,441.771 646.5,439C 647.38,437.644 647.714,436.144 647.5,434.5C 654.024,432.499 659.357,428.666 663.5,423C 669.324,420.685 673.157,416.518 675,410.5C 677.36,408.147 680.027,406.147 683,404.5C 685.106,401.392 686.772,398.059 688,394.5C 689.205,393.929 690.372,393.262 691.5,392.5C 692.703,389.367 694.537,386.701 697,384.5C 703.482,371.763 709.982,358.93 716.5,346C 720.065,332.578 723.065,319.078 725.5,305.5C 726.5,305.5 727.5,305.5 728.5,305.5C 731.149,281.169 731.149,256.836 728.5,232.5C 727.5,232.5 726.5,232.5 725.5,232.5C 723.063,217.417 719.396,202.75 714.5,188.5C 715.263,187.732 716.263,187.232 717.5,187C 738.218,186.086 758.884,186.586 779.5,188.5 Z"/></g>
<g><path style="opacity:1" fill="#8590c9" d="M 711.5,185.5 C 712.9,186.1 713.9,187.1 714.5,188.5C 719.396,202.75 723.063,217.417 725.5,232.5C 726.5,232.5 727.5,232.5 728.5,232.5C 731.149,256.836 731.149,281.169 728.5,305.5C 727.5,305.5 726.5,305.5 725.5,305.5C 723.065,319.078 720.065,332.578 716.5,346C 709.982,358.93 703.482,371.763 697,384.5C 694.537,386.701 692.703,389.367 691.5,392.5C 690.372,393.262 689.205,393.929 688,394.5C 686.772,398.059 685.106,401.392 683,404.5C 680.027,406.147 677.36,408.147 675,410.5C 673.157,416.518 669.324,420.685 663.5,423C 659.357,428.666 654.024,432.499 647.5,434.5C 647.714,436.144 647.38,437.644 646.5,439C 640.607,441.771 635.274,445.271 630.5,449.5C 625.96,450.595 622.293,452.929 619.5,456.5C 610.627,460.624 601.627,464.458 592.5,468C 588.779,468.62 585.112,469.453 581.5,470.5C 581.291,471.086 580.957,471.586 580.5,472C 573.076,473.635 565.742,475.635 558.5,478C 540.872,479.697 523.205,480.531 505.5,480.5C 503.265,480.795 501.265,480.461 499.5,479.5C 500.5,479.5 501.5,479.5 502.5,479.5C 500.934,470.912 499.767,462.245 499,453.5C 497.991,431.62 498.491,409.787 500.5,388C 503.951,376.861 506.618,365.528 508.5,354C 512.616,345.753 516.116,337.253 519,328.5C 520.633,325.632 522.467,322.965 524.5,320.5C 528.871,310.756 533.538,301.089 538.5,291.5C 540.766,290.568 542.766,289.234 544.5,287.5C 546.564,283.039 548.898,278.706 551.5,274.5C 555.899,272.27 559.066,268.936 561,264.5C 566.21,257.899 572.376,252.399 579.5,248C 581.455,244.209 584.455,241.709 588.5,240.5C 592.769,234.24 598.602,230.24 606,228.5C 607.52,227.303 608.687,225.803 609.5,224C 615.698,221.223 621.365,217.723 626.5,213.5C 639.03,208.321 651.53,202.987 664,197.5C 679.018,194.152 694.018,190.819 709,187.5C 710.376,187.316 711.209,186.649 711.5,185.5 Z"/></g>
<g><path style="opacity:1" fill="#ebe893" d="M 781.5,187.5 C 781.421,188.93 781.754,190.264 782.5,191.5C 791.549,192.676 800.549,194.176 809.5,196C 815.346,199.007 821.179,201.841 827,204.5C 830.809,205.577 834.643,206.577 838.5,207.5C 843.585,211.399 849.251,214.232 855.5,216C 857.698,218.173 860.031,220.173 862.5,222C 865.696,222.645 868.696,223.812 871.5,225.5C 874.092,229.471 877.759,231.971 882.5,233C 884.884,234.41 886.55,236.41 887.5,239C 890.106,240.27 892.439,241.937 894.5,244C 895.448,244.483 896.448,244.649 897.5,244.5C 898.167,246.5 898.833,248.5 899.5,250.5C 905.316,251.975 909.316,255.641 911.5,261.5C 913.567,262.134 915.4,263.134 917,264.5C 918.739,267.879 920.572,271.212 922.5,274.5C 924.781,275.277 926.948,276.277 929,277.5C 930.789,280.291 932.122,283.291 933,286.5C 938.186,289.277 941.186,293.61 942,299.5C 943.828,300.661 945.328,302.161 946.5,304C 950.581,309.997 953.748,316.497 956,323.5C 956.899,325.516 958.233,327.183 960,328.5C 960.827,335.189 963.16,341.189 967,346.5C 968.616,355.989 970.616,365.322 973,374.5C 974.049,376.107 975.549,376.773 977.5,376.5C 977.5,377.833 977.5,379.167 977.5,380.5C 975.801,380.34 974.134,380.506 972.5,381C 969.553,384.271 965.887,386.271 961.5,387C 960.663,388.011 960.33,389.178 960.5,390.5C 958.447,390.402 956.78,391.069 955.5,392.5C 951.174,393.661 946.841,394.828 942.5,396C 941.027,396.71 940.36,397.876 940.5,399.5C 920.348,405.48 899.681,407.813 878.5,406.5C 865.963,406.258 853.963,403.925 842.5,399.5C 841.614,398.675 841.281,397.675 841.5,396.5C 835.776,395.32 830.109,393.82 824.5,392C 822.588,390.8 821.255,389.133 820.5,387C 816.17,384.938 811.836,382.771 807.5,380.5C 806.923,376.422 804.59,374.256 800.5,374C 796.709,370.753 793.376,367.086 790.5,363C 787.851,362.206 785.684,360.706 784,358.5C 782.369,354.711 780.536,351.044 778.5,347.5C 777.086,346.376 775.586,345.376 774,344.5C 770.888,337.944 768.055,331.277 765.5,324.5C 764.098,324.135 763.098,323.301 762.5,322C 761.261,313.801 759.261,305.801 756.5,298C 755.837,294.527 755.504,291.027 755.5,287.5C 754.329,267.548 755.996,247.881 760.5,228.5C 760.464,225.179 761.131,222.012 762.5,219C 766.697,213.102 769.697,206.602 771.5,199.5C 773.168,196.334 775.668,194.001 779,192.5C 779.49,191.207 779.657,189.873 779.5,188.5C 780.167,188.167 780.833,187.833 781.5,187.5 Z"/></g>
<g><path style="opacity:1" fill="#f1efb4" d="M 760.5,228.5 C 755.996,247.881 754.329,267.548 755.5,287.5C 754.171,281.872 753.504,275.872 753.5,269.5C 753.833,263.5 754.167,257.5 754.5,251.5C 754.967,243.289 756.967,235.622 760.5,228.5 Z"/></g>
<g><path style="opacity:1" fill="#f7f6d5" d="M 1027.5,252.5 C 1028.99,268.887 1028.66,285.387 1026.5,302C 1026.04,303.942 1025.04,305.442 1023.5,306.5C 1023.72,300.641 1024.89,294.974 1027,289.5C 1027.5,277.171 1027.67,264.838 1027.5,252.5 Z"/></g>
<g><path style="opacity:1" fill="#af93cf" d="M 1153.5,305.5 C 1167.32,304.504 1181.32,304.171 1195.5,304.5C 1195.78,306.415 1195.45,308.081 1194.5,309.5C 1194.5,308.167 1194.5,306.833 1194.5,305.5C 1180.83,305.5 1167.17,305.5 1153.5,305.5 Z"/></g>
<g><path style="opacity:1" fill="#a98ccc" d="M 1226.5,305.5 C 1240.99,304.504 1255.66,304.171 1270.5,304.5C 1270.79,306.735 1270.46,308.735 1269.5,310.5C 1269.5,308.833 1269.5,307.167 1269.5,305.5C 1255.17,305.5 1240.83,305.5 1226.5,305.5 Z"/></g>
<g><path style="opacity:1" fill="#4a0e94" d="M 1226.5,305.5 C 1240.83,305.5 1255.17,305.5 1269.5,305.5C 1269.5,307.167 1269.5,308.833 1269.5,310.5C 1269.5,312.167 1269.5,313.833 1269.5,315.5C 1267.69,316.918 1267.03,318.918 1267.5,321.5C 1266.91,324.127 1266.58,326.794 1266.5,329.5C 1264.56,334.056 1263.89,339.056 1264.5,344.5C 1264.5,345.833 1264.5,347.167 1264.5,348.5C 1262.76,353.217 1262.1,358.217 1262.5,363.5C 1262.5,363.833 1262.5,364.167 1262.5,364.5C 1261.5,364.5 1260.5,364.5 1259.5,364.5C 1259.5,366.5 1259.5,368.5 1259.5,370.5C 1257.46,386.45 1255.79,402.45 1254.5,418.5C 1252.82,419.183 1252.16,420.517 1252.5,422.5C 1251.37,429.151 1250.37,435.818 1249.5,442.5C 1247.74,443.552 1247.08,445.219 1247.5,447.5C 1246.95,450.807 1246.62,454.14 1246.5,457.5C 1245.48,461.98 1244.81,466.647 1244.5,471.5C 1244.49,474.545 1244.16,477.545 1243.5,480.5C 1241.79,485.903 1241.13,491.57 1241.5,497.5C 1239.75,503.687 1238.75,510.021 1238.5,516.5C 1237.5,516.5 1236.5,516.5 1235.5,516.5C 1235.5,518.833 1235.5,521.167 1235.5,523.5C 1235.5,523.833 1235.5,524.167 1235.5,524.5C 1234.6,525.209 1234.26,526.209 1234.5,527.5C 1224.83,527.5 1215.17,527.5 1205.5,527.5C 1205.5,526.167 1205.5,524.833 1205.5,523.5C 1207.34,521.721 1208.01,519.388 1207.5,516.5C 1209.02,507.168 1210.36,497.835 1211.5,488.5C 1213.39,486.012 1214.05,483.012 1213.5,479.5C 1215.66,460.065 1218.33,440.732 1221.5,421.5C 1223.41,418.316 1224.08,414.649 1223.5,410.5C 1225.87,405.214 1226.87,399.548 1226.5,393.5C 1227.58,390.373 1228.25,387.04 1228.5,383.5C 1228.5,382.5 1228.5,381.5 1228.5,380.5C 1230.34,378.721 1231.01,376.388 1230.5,373.5C 1231.96,363.886 1232.96,354.219 1233.5,344.5C 1234.47,342.393 1234.8,340.059 1234.5,337.5C 1230.17,337.5 1225.83,337.5 1221.5,337.5C 1221.5,334.5 1221.5,331.5 1221.5,328.5C 1221.5,327.167 1221.5,325.833 1221.5,324.5C 1223.37,322.365 1224.04,319.698 1223.5,316.5C 1224.86,312.863 1225.86,309.196 1226.5,305.5 Z"/></g>
<g><path style="opacity:1" fill="#4a0e94" d="M 1153.5,305.5 C 1167.17,305.5 1180.83,305.5 1194.5,305.5C 1194.5,306.833 1194.5,308.167 1194.5,309.5C 1193.65,317.149 1192.98,324.816 1192.5,332.5C 1190.82,333.183 1190.16,334.517 1190.5,336.5C 1190.5,336.833 1190.5,337.167 1190.5,337.5C 1177.82,337.168 1165.15,337.501 1152.5,338.5C 1150.92,339.667 1149.59,341 1148.5,342.5C 1147.17,343.832 1145.5,344.665 1143.5,345C 1136.05,353.03 1133.05,362.53 1134.5,373.5C 1137.5,379.5 1140.5,385.5 1143.5,391.5C 1144.63,392.262 1145.79,392.929 1147,393.5C 1153.74,406.746 1161.41,419.413 1170,431.5C 1171.02,434.105 1171.85,436.772 1172.5,439.5C 1175.51,442.481 1177.17,446.148 1177.5,450.5C 1178.5,457.803 1178.83,465.137 1178.5,472.5C 1176.82,473.183 1176.16,474.517 1176.5,476.5C 1173.2,482.781 1170.7,489.447 1169,496.5C 1163.61,504.256 1157.44,511.256 1150.5,517.5C 1149.17,517.5 1148.5,518.167 1148.5,519.5C 1147.83,519.833 1147.17,520.167 1146.5,520.5C 1144.82,520.285 1143.82,520.952 1143.5,522.5C 1136.66,526.137 1129.33,528.137 1121.5,528.5C 1107.17,528.5 1092.83,528.5 1078.5,528.5C 1078.83,523.167 1079.17,517.833 1079.5,512.5C 1080.48,509.713 1080.81,506.713 1080.5,503.5C 1081.5,503.5 1082.5,503.5 1083.5,503.5C 1083.5,501.833 1083.5,500.167 1083.5,498.5C 1098.07,497.818 1112.74,497.151 1127.5,496.5C 1128.5,496.5 1129.5,496.5 1130.5,496.5C 1130.5,495.5 1130.5,494.5 1130.5,493.5C 1134.05,491.14 1137.55,488.473 1141,485.5C 1141.16,481.452 1143,478.785 1146.5,477.5C 1147.37,470.805 1147.37,464.139 1146.5,457.5C 1145.18,457.67 1144.01,457.337 1143,456.5C 1141.33,449.765 1137.99,444.098 1133,439.5C 1132.82,434.797 1130.82,431.13 1127,428.5C 1126.19,426.564 1125.69,424.564 1125.5,422.5C 1122.71,422.548 1120.87,421.215 1120,418.5C 1118.97,413.922 1117.47,409.588 1115.5,405.5C 1113.52,405.617 1111.85,404.95 1110.5,403.5C 1107.9,396.982 1105.9,390.315 1104.5,383.5C 1104.26,375.458 1104.6,367.458 1105.5,359.5C 1105.95,355.837 1106.45,352.17 1107,348.5C 1108.91,345.65 1110.08,342.483 1110.5,339C 1113.39,337.346 1115.89,335.179 1118,332.5C 1118.57,327.818 1121.07,324.985 1125.5,324C 1127.13,320.452 1129.46,317.452 1132.5,315C 1139.26,311.161 1146.26,307.995 1153.5,305.5 Z"/></g>
<g><path style="opacity:1" fill="#c4b1dc" d="M 1269.5,315.5 C 1269.97,318.082 1269.31,320.082 1267.5,321.5C 1267.03,318.918 1267.69,316.918 1269.5,315.5 Z"/></g>
<g><path style="opacity:1" fill="#d4c5e5" d="M 1223.5,316.5 C 1224.04,319.698 1223.37,322.365 1221.5,324.5C 1220.96,321.302 1221.63,318.635 1223.5,316.5 Z"/></g>
<g><path style="opacity:1" fill="#7444ac" d="M 1266.5,329.5 C 1266.15,334.68 1265.49,339.68 1264.5,344.5C 1263.89,339.056 1264.56,334.056 1266.5,329.5 Z"/></g>
<g><path style="opacity:1" fill="#c5b0dc" d="M 1192.5,332.5 C 1192.84,334.483 1192.18,335.817 1190.5,336.5C 1190.16,334.517 1190.82,333.183 1192.5,332.5 Z"/></g>
<g><path style="opacity:1" fill="#e7dff0" d="M 1414.5,337.5 C 1374.49,336.839 1334.82,337.506 1295.5,339.5C 1295.06,341.844 1294.06,343.844 1292.5,345.5C 1292.01,342.289 1292.68,339.456 1294.5,337C 1334.67,336.169 1374.67,336.335 1414.5,337.5 Z"/></g>
<g><path style="opacity:1" fill="#ac90ce" d="M 1190.5,337.5 C 1178.54,339.317 1166.21,340.151 1153.5,340C 1152.38,341.892 1150.72,342.725 1148.5,342.5C 1149.59,341 1150.92,339.667 1152.5,338.5C 1165.15,337.501 1177.82,337.168 1190.5,337.5 Z"/></g>
<g><path style="opacity:1" fill="#a789cb" d="M 1221.5,328.5 C 1221.5,331.5 1221.5,334.5 1221.5,337.5C 1225.83,337.5 1230.17,337.5 1234.5,337.5C 1234.8,340.059 1234.47,342.393 1233.5,344.5C 1233.5,342.833 1233.5,341.167 1233.5,339.5C 1229.17,339.5 1224.83,339.5 1220.5,339.5C 1220.19,335.629 1220.52,331.962 1221.5,328.5 Z"/></g>
<g><path style="opacity:1" fill="#9a77c3" d="M 1414.5,337.5 C 1414.5,338.167 1414.5,338.833 1414.5,339.5C 1374.83,339.5 1335.17,339.5 1295.5,339.5C 1334.82,337.506 1374.49,336.839 1414.5,337.5 Z"/></g>
<g><path style="opacity:1" fill="#c4b0dc" d="M 1503.5,337.5 C 1503.5,338.167 1503.5,338.833 1503.5,339.5C 1500.5,339.5 1497.5,339.5 1494.5,339.5C 1496.99,337.612 1499.99,336.945 1503.5,337.5 Z"/></g>
<g><path style="opacity:1" fill="#a180c7" d="M 1503.5,337.5 C 1515.88,336.854 1527.88,337.521 1539.5,339.5C 1527.5,339.5 1515.5,339.5 1503.5,339.5C 1503.5,338.833 1503.5,338.167 1503.5,337.5 Z"/></g>
<g><path style="opacity:1" fill="#9e7cc5" d="M 1658.5,339.5 C 1636.5,339.5 1614.5,339.5 1592.5,339.5C 1603.15,338.168 1614.15,337.501 1625.5,337.5C 1636.85,337.501 1647.85,338.168 1658.5,339.5 Z"/></g>
<g><path style="opacity:1" fill="#4a0d94" d="M 1295.5,339.5 C 1335.17,339.5 1374.83,339.5 1414.5,339.5C 1417.71,339.411 1420.88,339.744 1424,340.5C 1429.57,343.48 1433.91,347.814 1437,353.5C 1437.57,356.168 1438.07,358.834 1438.5,361.5C 1438.5,365.5 1438.5,369.5 1438.5,373.5C 1434.84,396.327 1431.34,419.327 1428,442.5C 1426.83,454.19 1425.66,465.857 1424.5,477.5C 1423.5,477.5 1422.5,477.5 1421.5,477.5C 1418.79,494.536 1416.46,511.536 1414.5,528.5C 1404.5,528.5 1394.5,528.5 1384.5,528.5C 1385.59,523.57 1386.26,518.57 1386.5,513.5C 1387.43,512.432 1387.77,511.099 1387.5,509.5C 1389.37,507.365 1390.04,504.698 1389.5,501.5C 1390.2,497.202 1390.53,492.869 1390.5,488.5C 1392.94,474.587 1394.94,460.587 1396.5,446.5C 1397.5,446.5 1398.5,446.5 1399.5,446.5C 1399.5,444.833 1399.5,443.167 1399.5,441.5C 1402.1,419.233 1404.27,396.899 1406,374.5C 1405.5,374 1405,373.5 1404.5,373C 1396.5,372.333 1388.5,372.333 1380.5,373C 1379.56,375.719 1379.22,378.552 1379.5,381.5C 1378.5,381.5 1377.5,381.5 1376.5,381.5C 1373.84,403.487 1371.17,425.487 1368.5,447.5C 1366.82,448.183 1366.16,449.517 1366.5,451.5C 1365.3,464.188 1363.96,476.855 1362.5,489.5C 1361.5,489.5 1360.5,489.5 1359.5,489.5C 1359.5,491.833 1359.5,494.167 1359.5,496.5C 1359.5,497.167 1359.5,497.833 1359.5,498.5C 1358.31,501.946 1357.65,505.613 1357.5,509.5C 1356.65,515.648 1355.65,521.648 1354.5,527.5C 1345.17,527.5 1335.83,527.5 1326.5,527.5C 1326.5,526.5 1326.5,525.5 1326.5,524.5C 1326.84,515.082 1327.84,505.748 1329.5,496.5C 1331.34,494.721 1332.01,492.388 1331.5,489.5C 1332.63,480.181 1333.63,470.848 1334.5,461.5C 1335.5,461.5 1336.5,461.5 1337.5,461.5C 1337.5,460.167 1337.5,458.833 1337.5,457.5C 1337.5,454.833 1337.5,452.167 1337.5,449.5C 1339.65,433.819 1341.65,418.152 1343.5,402.5C 1344.48,398.702 1344.82,394.702 1344.5,390.5C 1345.5,390.5 1346.5,390.5 1347.5,390.5C 1347.5,389.5 1347.5,388.5 1347.5,387.5C 1348.47,382.936 1348.47,378.436 1347.5,374C 1338.24,372.416 1328.91,372.083 1319.5,373C 1318.01,383.072 1317.01,393.239 1316.5,403.5C 1314.74,404.552 1314.08,406.219 1314.5,408.5C 1312.74,409.552 1312.08,411.219 1312.5,413.5C 1308.88,432.659 1306.55,451.993 1305.5,471.5C 1303.74,472.552 1303.08,474.219 1303.5,476.5C 1302.02,485.736 1301.02,495.07 1300.5,504.5C 1299.5,504.5 1298.5,504.5 1297.5,504.5C 1296.95,509.482 1296.61,514.482 1296.5,519.5C 1296.32,522.727 1295.66,525.727 1294.5,528.5C 1284.83,528.5 1275.17,528.5 1265.5,528.5C 1265.98,521.768 1266.65,515.101 1267.5,508.5C 1269.37,506.365 1270.04,503.698 1269.5,500.5C 1270.46,494.205 1271.13,487.872 1271.5,481.5C 1273.18,480.817 1273.84,479.483 1273.5,477.5C 1273.5,476.5 1273.5,475.5 1273.5,474.5C 1275.26,473.448 1275.92,471.781 1275.5,469.5C 1275.5,467.167 1275.5,464.833 1275.5,462.5C 1276.69,459.054 1277.35,455.387 1277.5,451.5C 1277.5,450.167 1277.5,448.833 1277.5,447.5C 1279.01,442.071 1279.68,436.404 1279.5,430.5C 1280.38,425.209 1281.05,419.876 1281.5,414.5C 1283.26,413.448 1283.92,411.781 1283.5,409.5C 1283.5,409.167 1283.5,408.833 1283.5,408.5C 1285.26,407.448 1285.92,405.781 1285.5,403.5C 1285.88,398.123 1286.55,392.79 1287.5,387.5C 1288.22,387.082 1288.72,386.416 1289,385.5C 1289.5,381.848 1289.67,378.182 1289.5,374.5C 1290.83,364.871 1291.83,355.205 1292.5,345.5C 1294.06,343.844 1295.06,341.844 1295.5,339.5 Z"/></g>
<g><path style="opacity:1" fill="#4a0e94" d="M 1494.5,339.5 C 1497.5,339.5 1500.5,339.5 1503.5,339.5C 1515.5,339.5 1527.5,339.5 1539.5,339.5C 1541.75,340.096 1543.75,341.096 1545.5,342.5C 1546.18,344.176 1547.52,344.843 1549.5,344.5C 1553.71,348.075 1556.04,352.742 1556.5,358.5C 1556.5,363.5 1556.5,368.5 1556.5,373.5C 1554.49,395.87 1552.16,418.203 1549.5,440.5C 1548.17,440.5 1546.83,440.5 1545.5,440.5C 1545.5,441.833 1545.5,443.167 1545.5,444.5C 1543.66,465.115 1540.99,485.615 1537.5,506C 1532.69,510.93 1528.69,516.43 1525.5,522.5C 1520.27,525.687 1514.61,527.687 1508.5,528.5C 1494.5,528.5 1480.5,528.5 1466.5,528.5C 1459.03,526.369 1453.7,521.702 1450.5,514.5C 1448.03,505.033 1448.03,495.7 1450.5,486.5C 1452.39,484.012 1453.05,481.012 1452.5,477.5C 1455.09,456.401 1458.09,435.401 1461.5,414.5C 1463.26,413.448 1463.92,411.781 1463.5,409.5C 1464.68,394.407 1466.51,379.407 1469,364.5C 1470.44,363.1 1471.27,361.433 1471.5,359.5C 1472.5,359.5 1473.5,359.5 1474.5,359.5C 1475.77,351.274 1480.44,346.274 1488.5,344.5C 1489.8,341.869 1491.8,340.202 1494.5,339.5 Z"/></g>
<g><path style="opacity:1" fill="#4a0e94" d="M 1592.5,339.5 C 1614.5,339.5 1636.5,339.5 1658.5,339.5C 1660.5,339.833 1662.5,340.167 1664.5,340.5C 1664.55,342.632 1665.55,343.965 1667.5,344.5C 1668.82,346.734 1670.82,348.068 1673.5,348.5C 1675.35,350.857 1676.52,353.523 1677,356.5C 1677.67,364.833 1677.67,373.167 1677,381.5C 1675.43,388.412 1674.59,395.412 1674.5,402.5C 1672.82,403.183 1672.16,404.517 1672.5,406.5C 1672.5,408.833 1672.5,411.167 1672.5,413.5C 1671.5,413.5 1670.5,413.5 1669.5,413.5C 1669.02,420.519 1668.35,427.519 1667.5,434.5C 1665.56,439.056 1664.89,444.056 1665.5,449.5C 1665.35,453.519 1665.02,457.519 1664.5,461.5C 1662.82,462.183 1662.16,463.517 1662.5,465.5C 1661.75,475.926 1660.42,486.259 1658.5,496.5C 1657.37,500.696 1656.37,505.029 1655.5,509.5C 1654.93,515.004 1654.27,520.504 1653.5,526C 1653.32,527.376 1652.65,528.209 1651.5,528.5C 1642.5,528.5 1633.5,528.5 1624.5,528.5C 1623.97,524.693 1623.97,520.693 1624.5,516.5C 1625.79,514.952 1626.46,512.952 1626.5,510.5C 1626.93,506.169 1627.26,501.835 1627.5,497.5C 1629.06,490.043 1630.06,482.376 1630.5,474.5C 1632.31,473.082 1632.97,471.082 1632.5,468.5C 1633.02,464.519 1633.35,460.519 1633.5,456.5C 1635.31,455.082 1635.97,453.082 1635.5,450.5C 1636.89,433.135 1639.56,415.968 1643.5,399C 1644.13,393.152 1644.8,387.319 1645.5,381.5C 1646.69,381.03 1647.36,380.03 1647.5,378.5C 1647.36,376.97 1646.69,375.97 1645.5,375.5C 1645.59,374.504 1645.25,373.671 1644.5,373C 1635.26,372.183 1626.09,372.35 1617,373.5C 1615.66,389.57 1613.82,405.57 1611.5,421.5C 1610.17,421.5 1608.83,421.5 1607.5,421.5C 1607.5,423.5 1607.5,425.5 1607.5,427.5C 1606.76,431.119 1606.42,434.785 1606.5,438.5C 1604.5,455.5 1602.5,472.5 1600.5,489.5C 1598.66,491.279 1597.99,493.612 1598.5,496.5C 1598.5,497.167 1598.5,497.833 1598.5,498.5C 1596.74,499.552 1596.08,501.219 1596.5,503.5C 1595.9,508.813 1595.57,514.146 1595.5,519.5C 1594.83,519.5 1594.17,519.5 1593.5,519.5C 1592.53,521.948 1592.19,524.615 1592.5,527.5C 1583.17,527.5 1573.83,527.5 1564.5,527.5C 1564.5,526.167 1564.5,524.833 1564.5,523.5C 1565.43,514.493 1566.43,505.493 1567.5,496.5C 1569.26,495.448 1569.92,493.781 1569.5,491.5C 1572.19,473.895 1574.52,456.229 1576.5,438.5C 1577.5,438.5 1578.5,438.5 1579.5,438.5C 1579.5,436.167 1579.5,433.833 1579.5,431.5C 1581.03,419.194 1582.36,406.86 1583.5,394.5C 1585.4,391.663 1586.07,388.329 1585.5,384.5C 1586.58,378.898 1587.24,373.231 1587.5,367.5C 1589.26,366.448 1589.92,364.781 1589.5,362.5C 1590.26,354.807 1591.26,347.141 1592.5,339.5 Z"/></g>
<g><path style="opacity:1" fill="#c1adda" d="M 1545.5,342.5 C 1547.48,342.157 1548.82,342.824 1549.5,344.5C 1547.52,344.843 1546.18,344.176 1545.5,342.5 Z"/></g>
<g><path style="opacity:1" fill="#c9b6df" d="M 1664.5,340.5 C 1666.45,341.035 1667.45,342.368 1667.5,344.5C 1665.55,343.965 1664.55,342.632 1664.5,340.5 Z"/></g>
<g><path style="opacity:1" fill="#936dbf" d="M 1264.5,348.5 C 1264.15,353.68 1263.49,358.68 1262.5,363.5C 1262.1,358.217 1262.76,353.217 1264.5,348.5 Z"/></g>
<g><path style="opacity:1" fill="#8c65bb" d="M 1556.5,358.5 C 1557.81,360.571 1558.48,363.071 1558.5,366C 1558.48,368.929 1557.81,371.429 1556.5,373.5C 1556.5,368.5 1556.5,363.5 1556.5,358.5 Z"/></g>
<g><path style="opacity:1" fill="#b59cd3" d="M 1438.5,361.5 C 1439.79,363.048 1440.46,365.048 1440.5,367.5C 1440.46,369.952 1439.79,371.952 1438.5,373.5C 1438.5,369.5 1438.5,365.5 1438.5,361.5 Z"/></g>
<g><path style="opacity:1" fill="#b9a0d5" d="M 1589.5,362.5 C 1589.92,364.781 1589.26,366.448 1587.5,367.5C 1587.08,365.219 1587.74,363.552 1589.5,362.5 Z"/></g>
<g><path style="opacity:1" fill="#baa3d6" d="M 1105.5,359.5 C 1104.6,367.458 1104.26,375.458 1104.5,383.5C 1103.18,380.232 1102.51,376.565 1102.5,372.5C 1102.83,368.833 1103.17,365.167 1103.5,361.5C 1104.18,360.757 1104.85,360.091 1105.5,359.5 Z"/></g>
<g><path style="opacity:1" fill="#b196d1" d="M 1262.5,364.5 C 1262.5,366.5 1262.5,368.5 1262.5,370.5C 1261.5,370.5 1260.5,370.5 1259.5,370.5C 1259.5,368.5 1259.5,366.5 1259.5,364.5C 1260.5,364.5 1261.5,364.5 1262.5,364.5 Z"/></g>
<g><path style="opacity:1" fill="#e7d9d9" d="M 987.5,367.5 C 988.5,367.5 989.5,367.5 990.5,367.5C 992.555,386.443 993.889,405.443 994.5,424.5C 994.096,444.567 992.762,464.567 990.5,484.5C 989.5,484.5 988.5,484.5 987.5,484.5C 984.772,497.483 981.605,510.483 978,523.5C 976.004,523.996 974.337,524.996 973,526.5C 972.136,532.423 970.469,538.09 968,543.5C 963.77,551.399 959.27,559.066 954.5,566.5C 953.52,569.086 953.187,571.753 953.5,574.5C 952.638,571.177 951.972,567.677 951.5,564C 951.316,562.624 950.649,561.791 949.5,561.5C 949.795,559.265 949.461,557.265 948.5,555.5C 948.425,552.794 948.092,550.127 947.5,547.5C 950.311,543.27 952.978,538.937 955.5,534.5C 956,532.5 956.5,530.5 957,528.5C 960.286,525.252 961.952,521.252 962,516.5C 963.845,513.667 965.511,510.667 967,507.5C 969.898,496.649 972.065,485.649 973.5,474.5C 974.833,474.5 976.167,474.5 977.5,474.5C 979.007,458.874 980.007,443.207 980.5,427.5C 979.898,411.798 978.898,396.131 977.5,380.5C 977.5,379.167 977.5,377.833 977.5,376.5C 981.293,373.949 984.626,370.949 987.5,367.5 Z"/></g>
<g><path style="opacity:1" fill="#fbfafd" d="M 1524.5,373.5 C 1524.5,379.167 1524.5,384.833 1524.5,390.5C 1524.07,394.824 1523.74,399.158 1523.5,403.5C 1521.74,404.552 1521.08,406.219 1521.5,408.5C 1520.09,421.16 1518.76,433.827 1517.5,446.5C 1515.74,447.552 1515.08,449.219 1515.5,451.5C 1513.68,464.205 1511.68,476.872 1509.5,489.5C 1507.87,491.765 1506.54,494.099 1505.5,496.5C 1497.83,496.5 1490.17,496.5 1482.5,496.5C 1482.71,494.821 1482.05,493.821 1480.5,493.5C 1479.85,492.551 1479.51,491.385 1479.5,490C 1480.34,481.801 1481.34,473.634 1482.5,465.5C 1484.18,464.817 1484.84,463.483 1484.5,461.5C 1484.5,460.167 1484.5,458.833 1484.5,457.5C 1485.5,457.5 1486.5,457.5 1487.5,457.5C 1487.5,455.5 1487.5,453.5 1487.5,451.5C 1489.69,427.758 1492.69,404.091 1496.5,380.5C 1498.18,379.817 1498.84,378.483 1498.5,376.5C 1499.12,374.583 1500.45,373.416 1502.5,373C 1510.01,372.178 1517.35,372.345 1524.5,373.5 Z"/></g>
<g><path style="opacity:1" fill="#dfd3ec" d="M 1524.5,373.5 C 1525.5,373.414 1526.33,373.748 1527,374.5C 1527.57,378.686 1527.41,382.853 1526.5,387C 1526.39,388.681 1525.73,389.848 1524.5,390.5C 1524.5,384.833 1524.5,379.167 1524.5,373.5 Z"/></g>
<g><path style="opacity:1" fill="#845ab6" d="M 1230.5,373.5 C 1231.01,376.388 1230.34,378.721 1228.5,380.5C 1227.99,377.612 1228.66,375.279 1230.5,373.5 Z"/></g>
<g><path style="opacity:1" fill="#8e69bd" d="M 1498.5,376.5 C 1498.84,378.483 1498.18,379.817 1496.5,380.5C 1496.16,378.517 1496.82,377.183 1498.5,376.5 Z"/></g>
<g><path style="opacity:1" fill="#9069bd" d="M 1645.5,375.5 C 1646.69,375.97 1647.36,376.97 1647.5,378.5C 1647.36,380.03 1646.69,381.03 1645.5,381.5C 1645.5,379.5 1645.5,377.5 1645.5,375.5 Z"/></g>
<g><path style="opacity:1" fill="#865cb7" d="M 1289.5,374.5 C 1289.67,378.182 1289.5,381.848 1289,385.5C 1288.72,386.416 1288.22,387.082 1287.5,387.5C 1287.88,382.99 1288.55,378.657 1289.5,374.5 Z"/></g>
<g><path style="opacity:1" fill="#bea7d8" d="M 1228.5,383.5 C 1228.25,387.04 1227.58,390.373 1226.5,393.5C 1226.16,389.84 1226.83,386.507 1228.5,383.5 Z"/></g>
<g><path style="opacity:1" fill="#c3aedc" d="M 1347.5,387.5 C 1347.5,388.5 1347.5,389.5 1347.5,390.5C 1346.5,390.5 1345.5,390.5 1344.5,390.5C 1344.82,394.702 1344.48,398.702 1343.5,402.5C 1343.5,397.5 1343.5,392.5 1343.5,387.5C 1344.83,387.5 1346.17,387.5 1347.5,387.5 Z"/></g>
<g><path style="opacity:1" fill="#cfbee2" d="M 1585.5,384.5 C 1586.07,388.329 1585.4,391.663 1583.5,394.5C 1582.93,390.671 1583.6,387.337 1585.5,384.5 Z"/></g>
<g><path style="opacity:1" fill="#f7f6d4" d="M 955.5,392.5 C 952.34,395 948.673,396.333 944.5,396.5C 944.5,397.5 944.5,398.5 944.5,399.5C 939.762,400.698 935.095,402.198 930.5,404C 918.795,406.57 906.962,408.07 895,408.5C 889.124,408.495 883.624,407.829 878.5,406.5C 899.681,407.813 920.348,405.48 940.5,399.5C 940.36,397.876 941.027,396.71 942.5,396C 946.841,394.828 951.174,393.661 955.5,392.5 Z"/></g>
<g><path style="opacity:1" fill="#b195d0" d="M 1674.5,402.5 C 1674.84,404.483 1674.18,405.817 1672.5,406.5C 1672.16,404.517 1672.82,403.183 1674.5,402.5 Z"/></g>
<g><path style="opacity:1" fill="#885eb8" d="M 1285.5,403.5 C 1285.92,405.781 1285.26,407.448 1283.5,408.5C 1283.08,406.219 1283.74,404.552 1285.5,403.5 Z"/></g>
<g><path style="opacity:1" fill="#bfa9d9" d="M 1316.5,403.5 C 1316.92,405.781 1316.26,407.448 1314.5,408.5C 1314.08,406.219 1314.74,404.552 1316.5,403.5 Z"/></g>
<g><path style="opacity:1" fill="#a586c9" d="M 1523.5,403.5 C 1523.92,405.781 1523.26,407.448 1521.5,408.5C 1521.08,406.219 1521.74,404.552 1523.5,403.5 Z"/></g>
<g><path style="opacity:1" fill="#9b78c4" d="M 1283.5,409.5 C 1283.92,411.781 1283.26,413.448 1281.5,414.5C 1281.08,412.219 1281.74,410.552 1283.5,409.5 Z"/></g>
<g><path style="opacity:1" fill="#a080c7" d="M 1314.5,408.5 C 1314.92,410.781 1314.26,412.448 1312.5,413.5C 1312.08,411.219 1312.74,409.552 1314.5,408.5 Z"/></g>
<g><path style="opacity:1" fill="#a283c8" d="M 1463.5,409.5 C 1463.92,411.781 1463.26,413.448 1461.5,414.5C 1461.08,412.219 1461.74,410.552 1463.5,409.5 Z"/></g>
<g><path style="opacity:1" fill="#cebde2" d="M 1223.5,410.5 C 1224.08,414.649 1223.41,418.316 1221.5,421.5C 1220.92,417.351 1221.59,413.684 1223.5,410.5 Z"/></g>
<g><path style="opacity:1" fill="#bba3d6" d="M 1254.5,418.5 C 1254.84,420.483 1254.18,421.817 1252.5,422.5C 1252.16,420.517 1252.82,419.183 1254.5,418.5 Z"/></g>
<g><path style="opacity:1" fill="#8258b4" d="M 1611.5,421.5 C 1611.5,423.5 1611.5,425.5 1611.5,427.5C 1610.17,427.5 1608.83,427.5 1607.5,427.5C 1607.5,425.5 1607.5,423.5 1607.5,421.5C 1608.83,421.5 1610.17,421.5 1611.5,421.5 Z"/></g>
<g><path style="opacity:1" fill="#fcc8c9" d="M 804.5,427.5 C 795.537,426.561 786.537,425.894 777.5,425.5C 764.13,426.51 750.796,427.843 737.5,429.5C 757.019,423.959 777.019,422.292 797.5,424.5C 800.295,424.938 802.628,425.938 804.5,427.5 Z"/></g>
<g><path style="opacity:1" fill="#faa1a3" d="M 804.5,427.5 C 816.648,428.978 828.648,431.144 840.5,434C 841.38,435.356 841.714,436.856 841.5,438.5C 848.235,440.022 854.901,441.855 861.5,444C 864.218,445.586 866.551,447.586 868.5,450C 871.796,451.511 875.129,452.677 878.5,453.5C 878.5,454.833 878.5,456.167 878.5,457.5C 879.873,457.343 881.207,457.51 882.5,458C 888.325,462.985 894.325,467.818 900.5,472.5C 904.701,476.183 907.868,480.516 910,485.5C 912.924,486.734 915.591,488.401 918,490.5C 919.652,496.988 923.152,502.154 928.5,506C 930.743,509.723 932.41,513.723 933.5,518C 935.587,520.73 937.587,523.563 939.5,526.5C 941.716,533.7 944.382,540.7 947.5,547.5C 948.092,550.127 948.425,552.794 948.5,555.5C 947.566,554.432 947.232,553.099 947.5,551.5C 945.857,551.48 944.524,552.147 943.5,553.5C 940.044,559.885 936.044,565.885 931.5,571.5C 929.895,574.314 928.895,577.314 928.5,580.5C 921.408,582.592 917.075,587.259 915.5,594.5C 914.127,594.343 912.793,594.51 911.5,595C 909.167,598 906.833,601 904.5,604C 903.128,604.402 901.795,604.902 900.5,605.5C 899.422,607.997 897.589,609.663 895,610.5C 894.691,611.766 894.191,612.933 893.5,614C 888.869,617.655 883.869,620.821 878.5,623.5C 878.081,624.672 877.415,625.672 876.5,626.5C 870.913,629.462 865.246,632.128 859.5,634.5C 857.545,639.158 853.878,641.325 848.5,641C 845.36,642.973 842.36,645.14 839.5,647.5C 828.916,651.379 818.416,655.379 808,659.5C 757.864,672.372 708.031,671.205 658.5,656C 656.641,654.308 654.641,652.808 652.5,651.5C 645.272,650.518 638.939,647.851 633.5,643.5C 629.386,642.305 625.386,640.805 621.5,639C 619.561,638.092 618.561,636.592 618.5,634.5C 615.093,633.664 611.759,632.664 608.5,631.5C 608.5,633.833 608.5,636.167 608.5,638.5C 606.815,632.233 605.482,625.9 604.5,619.5C 604.5,609.833 604.5,600.167 604.5,590.5C 605.841,572.599 608.674,554.932 613,537.5C 614.584,536.139 616.418,535.472 618.5,535.5C 620.974,526.746 623.641,518.08 626.5,509.5C 627.822,509.67 628.989,509.337 630,508.5C 634.258,499.659 639.924,491.659 647,484.5C 647.483,483.552 647.649,482.552 647.5,481.5C 650.076,480.893 652.409,479.726 654.5,478C 656.668,473.724 659.668,470.058 663.5,467C 668.655,464.041 673.488,460.541 678,456.5C 678.483,455.552 678.649,454.552 678.5,453.5C 679.873,453.657 681.207,453.49 682.5,453C 688.403,449.045 694.403,445.378 700.5,442C 704.96,439.932 709.627,438.766 714.5,438.5C 714.5,437.167 714.5,435.833 714.5,434.5C 722.093,432.448 729.759,430.782 737.5,429.5C 750.796,427.843 764.13,426.51 777.5,425.5C 786.537,425.894 795.537,426.561 804.5,427.5 Z"/></g>
<g><path style="opacity:1" fill="#c9b6df" d="M 1607.5,427.5 C 1608.83,427.5 1610.17,427.5 1611.5,427.5C 1611.5,428.833 1611.5,430.167 1611.5,431.5C 1610.17,431.5 1608.83,431.5 1607.5,431.5C 1607.8,434.059 1607.47,436.393 1606.5,438.5C 1606.42,434.785 1606.76,431.119 1607.5,427.5 Z"/></g>
<g><path style="opacity:1" fill="#d3c3e5" d="M 1279.5,430.5 C 1279.68,436.404 1279.01,442.071 1277.5,447.5C 1277.33,442.821 1277.5,438.155 1278,433.5C 1278.23,432.263 1278.73,431.263 1279.5,430.5 Z"/></g>
<g><path style="opacity:1" fill="#8b63ba" d="M 1579.5,431.5 C 1579.5,433.833 1579.5,436.167 1579.5,438.5C 1578.5,438.5 1577.5,438.5 1576.5,438.5C 1576.5,436.167 1576.5,433.833 1576.5,431.5C 1577.5,431.5 1578.5,431.5 1579.5,431.5 Z"/></g>
<g><path style="opacity:1" fill="#7749ae" d="M 1667.5,434.5 C 1667.26,439.694 1666.59,444.694 1665.5,449.5C 1664.89,444.056 1665.56,439.056 1667.5,434.5 Z"/></g>
<g><path style="opacity:1" fill="#bda8d8" d="M 1549.5,440.5 C 1549.5,441.833 1549.5,443.167 1549.5,444.5C 1548.17,444.5 1546.83,444.5 1545.5,444.5C 1545.5,443.167 1545.5,441.833 1545.5,440.5C 1546.83,440.5 1548.17,440.5 1549.5,440.5 Z"/></g>
<g><path style="opacity:1" fill="#bfa8d9" d="M 1249.5,442.5 C 1249.92,444.781 1249.26,446.448 1247.5,447.5C 1247.08,445.219 1247.74,443.552 1249.5,442.5 Z"/></g>
<g><path style="opacity:1" fill="#9069bd" d="M 1399.5,441.5 C 1399.5,443.167 1399.5,444.833 1399.5,446.5C 1398.5,446.5 1397.5,446.5 1396.5,446.5C 1396.5,444.833 1396.5,443.167 1396.5,441.5C 1397.5,441.5 1398.5,441.5 1399.5,441.5 Z"/></g>
<g><path style="opacity:1" fill="#ae93cf" d="M 1368.5,447.5 C 1368.84,449.483 1368.18,450.817 1366.5,451.5C 1366.16,449.517 1366.82,448.183 1368.5,447.5 Z"/></g>
<g><path style="opacity:1" fill="#8f69bc" d="M 1517.5,446.5 C 1517.92,448.781 1517.26,450.448 1515.5,451.5C 1515.08,449.219 1515.74,447.552 1517.5,446.5 Z"/></g>
<g><path style="opacity:1" fill="#d8cae8" d="M 1277.5,451.5 C 1277.35,455.387 1276.69,459.054 1275.5,462.5C 1274.92,458.351 1275.59,454.684 1277.5,451.5 Z"/></g>
<g><path style="opacity:1" fill="#d6c9e7" d="M 1337.5,449.5 C 1337.5,452.167 1337.5,454.833 1337.5,457.5C 1336.5,457.5 1335.5,457.5 1334.5,457.5C 1334.5,454.833 1334.5,452.167 1334.5,449.5C 1335.5,449.5 1336.5,449.5 1337.5,449.5 Z"/></g>
<g><path style="opacity:1" fill="#bda7d8" d="M 1487.5,451.5 C 1487.5,453.5 1487.5,455.5 1487.5,457.5C 1486.5,457.5 1485.5,457.5 1484.5,457.5C 1484.5,455.5 1484.5,453.5 1484.5,451.5C 1485.5,451.5 1486.5,451.5 1487.5,451.5 Z"/></g>
<g><path style="opacity:1" fill="#b095d0" d="M 1635.5,450.5 C 1635.97,453.082 1635.31,455.082 1633.5,456.5C 1633.03,453.918 1633.69,451.918 1635.5,450.5 Z"/></g>
<g><path style="opacity:1" fill="#855bb7" d="M 1334.5,457.5 C 1335.5,457.5 1336.5,457.5 1337.5,457.5C 1337.5,458.833 1337.5,460.167 1337.5,461.5C 1336.5,461.5 1335.5,461.5 1334.5,461.5C 1334.5,460.167 1334.5,458.833 1334.5,457.5 Z"/></g>
<g><path style="opacity:1" fill="#b298d1" d="M 1484.5,461.5 C 1484.84,463.483 1484.18,464.817 1482.5,465.5C 1482.16,463.517 1482.82,462.183 1484.5,461.5 Z"/></g>
<g><path style="opacity:1" fill="#aa8dcc" d="M 1664.5,461.5 C 1664.84,463.483 1664.18,464.817 1662.5,465.5C 1662.16,463.517 1662.82,462.183 1664.5,461.5 Z"/></g>
<g><path style="opacity:1" fill="#c3aedb" d="M 1246.5,457.5 C 1246.88,462.453 1246.21,467.119 1244.5,471.5C 1244.81,466.647 1245.48,461.98 1246.5,457.5 Z"/></g>
<g><path style="opacity:1" fill="#9671c0" d="M 1275.5,469.5 C 1275.92,471.781 1275.26,473.448 1273.5,474.5C 1273.08,472.219 1273.74,470.552 1275.5,469.5 Z"/></g>
<g><path style="opacity:1" fill="#946fbf" d="M 1632.5,468.5 C 1632.97,471.082 1632.31,473.082 1630.5,474.5C 1630.03,471.918 1630.69,469.918 1632.5,468.5 Z"/></g>
<g><path style="opacity:1" fill="#bfa9d9" d="M 1178.5,472.5 C 1178.84,474.483 1178.18,475.817 1176.5,476.5C 1176.16,474.517 1176.82,473.183 1178.5,472.5 Z"/></g>
<g><path style="opacity:1" fill="#c5b1dc" d="M 1305.5,471.5 C 1305.92,473.781 1305.26,475.448 1303.5,476.5C 1303.08,474.219 1303.74,472.552 1305.5,471.5 Z"/></g>
<g><path style="opacity:1" fill="#e7d9d9" d="M 486.5,478.5 C 490.857,478.586 495.19,478.92 499.5,479.5C 501.265,480.461 503.265,480.795 505.5,480.5C 506.572,487.477 507.572,494.477 508.5,501.5C 513.901,510.976 518.235,520.976 521.5,531.5C 525.401,538.297 529.568,544.963 534,551.5C 535.592,555.029 536.926,558.695 538,562.5C 540.531,563.901 542.864,565.567 545,567.5C 547.441,571.631 549.608,575.965 551.5,580.5C 556.591,582.089 559.758,585.423 561,590.5C 565.321,593.323 568.821,596.989 571.5,601.5C 573.84,603.671 576.506,605.338 579.5,606.5C 581.371,608.87 583.038,611.37 584.5,614C 589.167,616.667 593.833,619.333 598.5,622C 599.5,623.667 600.5,625.333 601.5,627C 602.448,627.483 603.448,627.649 604.5,627.5C 604.5,624.833 604.5,622.167 604.5,619.5C 605.482,625.9 606.815,632.233 608.5,638.5C 609.051,641.807 609.384,645.14 609.5,648.5C 608.127,648.657 606.793,648.49 605.5,648C 600.68,643.847 595.347,640.514 589.5,638C 588.951,634.619 586.951,632.786 583.5,632.5C 576.86,625.9 569.526,620.067 561.5,615C 559.72,611.715 557.72,608.548 555.5,605.5C 554.205,604.902 552.872,604.402 551.5,604C 548.198,599.875 545.031,595.708 542,591.5C 540.667,590.833 539.333,590.167 538,589.5C 536.798,585.31 534.465,581.977 531,579.5C 528.976,573.963 525.809,569.296 521.5,565.5C 519.587,560.48 517.087,555.813 514,551.5C 514.239,547.816 512.739,545.149 509.5,543.5C 506.717,539.26 505.05,534.594 504.5,529.5C 503.167,527.833 501.833,526.167 500.5,524.5C 497.701,515.148 495.034,505.814 492.5,496.5C 491.5,496.5 490.5,496.5 489.5,496.5C 488.506,490.512 487.506,484.512 486.5,478.5 Z"/></g>
<g><path style="opacity:1" fill="#9571c0" d="M 1273.5,477.5 C 1273.84,479.483 1273.18,480.817 1271.5,481.5C 1271.16,479.517 1271.82,478.183 1273.5,477.5 Z"/></g>
<g><path style="opacity:1" fill="#cab7df" d="M 1213.5,479.5 C 1214.05,483.012 1213.39,486.012 1211.5,488.5C 1210.95,484.988 1211.61,481.988 1213.5,479.5 Z"/></g>
<g><path style="opacity:1" fill="#7648ae" d="M 1452.5,477.5 C 1453.05,481.012 1452.39,484.012 1450.5,486.5C 1449.95,482.988 1450.61,479.988 1452.5,477.5 Z"/></g>
<g><path style="opacity:1" fill="#7748ae" d="M 1243.5,480.5 C 1243.28,486.36 1242.62,492.027 1241.5,497.5C 1241.13,491.57 1241.79,485.903 1243.5,480.5 Z"/></g>
<g><path style="opacity:1" fill="#936ebf" d="M 1331.5,489.5 C 1332.01,492.388 1331.34,494.721 1329.5,496.5C 1328.99,493.612 1329.66,491.279 1331.5,489.5 Z"/></g>
<g><path style="opacity:1" fill="#9774c1" d="M 1600.5,489.5 C 1601.01,492.388 1600.34,494.721 1598.5,496.5C 1597.99,493.612 1598.66,491.279 1600.5,489.5 Z"/></g>
<g><path style="opacity:1" fill="#8f68bc" d="M 1130.5,493.5 C 1130.5,494.5 1130.5,495.5 1130.5,496.5C 1129.5,496.5 1128.5,496.5 1127.5,496.5C 1127.5,495.5 1127.5,494.5 1127.5,493.5C 1128.5,493.5 1129.5,493.5 1130.5,493.5 Z"/></g>
<g><path style="opacity:1" fill="#b9a2d5" d="M 1362.5,489.5 C 1362.5,491.833 1362.5,494.167 1362.5,496.5C 1361.5,496.5 1360.5,496.5 1359.5,496.5C 1359.5,494.167 1359.5,491.833 1359.5,489.5C 1360.5,489.5 1361.5,489.5 1362.5,489.5 Z"/></g>
<g><path style="opacity:1" fill="#dccfea" d="M 1390.5,488.5 C 1390.53,492.869 1390.2,497.202 1389.5,501.5C 1387.63,503.635 1386.96,506.302 1387.5,509.5C 1387.77,511.099 1387.43,512.432 1386.5,513.5C 1385.71,504.682 1387.05,496.349 1390.5,488.5 Z"/></g>
<g><path style="opacity:1" fill="#a181c7" d="M 1569.5,491.5 C 1569.92,493.781 1569.26,495.448 1567.5,496.5C 1567.08,494.219 1567.74,492.552 1569.5,491.5 Z"/></g>
<g><path style="opacity:1" fill="#b399d2" d="M 1480.5,493.5 C 1482.05,493.821 1482.71,494.821 1482.5,496.5C 1490.17,496.5 1497.83,496.5 1505.5,496.5C 1497.68,497.656 1489.68,497.823 1481.5,497C 1480.66,495.989 1480.33,494.822 1480.5,493.5 Z"/></g>
<g><path style="opacity:1" fill="#d1c1e4" d="M 1083.5,498.5 C 1083.5,500.167 1083.5,501.833 1083.5,503.5C 1082.5,503.5 1081.5,503.5 1080.5,503.5C 1080.81,506.713 1080.48,509.713 1079.5,512.5C 1079.33,508.154 1079.5,503.821 1080,499.5C 1081.01,498.663 1082.18,498.33 1083.5,498.5 Z"/></g>
<g><path style="opacity:1" fill="#9f7fc6" d="M 1598.5,498.5 C 1598.92,500.781 1598.26,502.448 1596.5,503.5C 1596.08,501.219 1596.74,499.552 1598.5,498.5 Z"/></g>
<g><path style="opacity:1" fill="#a98bcb" d="M 1269.5,500.5 C 1270.04,503.698 1269.37,506.365 1267.5,508.5C 1266.96,505.302 1267.63,502.635 1269.5,500.5 Z"/></g>
<g><path style="opacity:1" fill="#ddd1eb" d="M 1627.5,497.5 C 1627.26,501.835 1626.93,506.169 1626.5,510.5C 1626.46,512.952 1625.79,514.952 1624.5,516.5C 1624.17,509.825 1625.17,503.491 1627.5,497.5 Z"/></g>
<g><path style="opacity:1" fill="#c7b2de" d="M 1359.5,498.5 C 1359.66,501.518 1359.5,504.518 1359,507.5C 1358.72,508.416 1358.22,509.082 1357.5,509.5C 1357.65,505.613 1358.31,501.946 1359.5,498.5 Z"/></g>
<g><path style="opacity:1" fill="#7344ac" d="M 1389.5,501.5 C 1390.04,504.698 1389.37,507.365 1387.5,509.5C 1386.96,506.302 1387.63,503.635 1389.5,501.5 Z"/></g>
<g><path style="opacity:1" fill="#d1c1e4" d="M 1658.5,496.5 C 1658.66,499.518 1658.5,502.518 1658,505.5C 1657.88,507.437 1657.05,508.77 1655.5,509.5C 1656.37,505.029 1657.37,500.696 1658.5,496.5 Z"/></g>
<g><path style="opacity:1" fill="#d3c4e5" d="M 1300.5,504.5 C 1300.5,507.167 1300.5,509.833 1300.5,512.5C 1299.5,512.5 1298.5,512.5 1297.5,512.5C 1297.8,515.059 1297.47,517.393 1296.5,519.5C 1296.61,514.482 1296.95,509.482 1297.5,504.5C 1298.5,504.5 1299.5,504.5 1300.5,504.5 Z"/></g>
<g><path style="opacity:1" fill="#ab8fce" d="M 1150.5,517.5 C 1150.5,518.833 1149.83,519.5 1148.5,519.5C 1148.5,518.167 1149.17,517.5 1150.5,517.5 Z"/></g>
<g><path style="opacity:1" fill="#b59cd3" d="M 1207.5,516.5 C 1208.01,519.388 1207.34,521.721 1205.5,523.5C 1204.99,520.612 1205.66,518.279 1207.5,516.5 Z"/></g>
<g><path style="opacity:1" fill="#9776c3" d="M 1146.5,520.5 C 1146.18,522.048 1145.18,522.715 1143.5,522.5C 1143.82,520.952 1144.82,520.285 1146.5,520.5 Z"/></g>
<g><path style="opacity:1" fill="#9d7bc5" d="M 1238.5,516.5 C 1238.5,518.833 1238.5,521.167 1238.5,523.5C 1237.5,523.5 1236.5,523.5 1235.5,523.5C 1235.5,521.167 1235.5,518.833 1235.5,516.5C 1236.5,516.5 1237.5,516.5 1238.5,516.5 Z"/></g>
<g><path style="opacity:1" fill="#b79ed4" d="M 1593.5,519.5 C 1594.17,519.5 1594.83,519.5 1595.5,519.5C 1595.84,521.483 1595.18,522.817 1593.5,523.5C 1593.5,522.167 1593.5,520.833 1593.5,519.5 Z"/></g>
<g><path style="opacity:1" fill="#b298d1" d="M 1564.5,523.5 C 1564.5,524.833 1564.5,526.167 1564.5,527.5C 1564.5,527.833 1564.5,528.167 1564.5,528.5C 1563.35,528.209 1562.68,527.376 1562.5,526C 1562.68,524.624 1563.35,523.791 1564.5,523.5 Z"/></g>
<g><path style="opacity:1" fill="#6a37a7" d="M 1235.5,524.5 C 1235.77,526.099 1235.43,527.432 1234.5,528.5C 1224.83,528.5 1215.17,528.5 1205.5,528.5C 1205.5,528.167 1205.5,527.833 1205.5,527.5C 1215.17,527.5 1224.83,527.5 1234.5,527.5C 1234.26,526.209 1234.6,525.209 1235.5,524.5 Z"/></g>
<g><path style="opacity:1" fill="#6c39a8" d="M 1326.5,524.5 C 1326.5,525.5 1326.5,526.5 1326.5,527.5C 1335.83,527.5 1345.17,527.5 1354.5,527.5C 1354.5,528.167 1354.17,528.5 1353.5,528.5C 1344.5,528.5 1335.5,528.5 1326.5,528.5C 1325.17,527.167 1325.17,525.833 1326.5,524.5 Z"/></g>
<g><path style="opacity:1" fill="#6a37a7" d="M 1593.5,519.5 C 1593.5,520.833 1593.5,522.167 1593.5,523.5C 1593.78,525.415 1593.45,527.081 1592.5,528.5C 1583.17,528.5 1573.83,528.5 1564.5,528.5C 1564.5,528.167 1564.5,527.833 1564.5,527.5C 1573.83,527.5 1583.17,527.5 1592.5,527.5C 1592.19,524.615 1592.53,521.948 1593.5,519.5 Z"/></g>
<g><path style="opacity:1" fill="#bfa9d9" d="M 1078.5,528.5 C 1092.83,528.5 1107.17,528.5 1121.5,528.5C 1121.5,529.5 1121.5,530.5 1121.5,531.5C 1107.17,531.5 1092.83,531.5 1078.5,531.5C 1078.5,530.5 1078.5,529.5 1078.5,528.5 Z"/></g>
<g><path style="opacity:1" fill="#c1abda" d="M 1205.5,528.5 C 1215.17,528.5 1224.83,528.5 1234.5,528.5C 1234.5,529.5 1234.5,530.5 1234.5,531.5C 1224.83,531.5 1215.17,531.5 1205.5,531.5C 1205.5,530.5 1205.5,529.5 1205.5,528.5 Z"/></g>
<g><path style="opacity:1" fill="#c0abda" d="M 1265.5,528.5 C 1275.17,528.5 1284.83,528.5 1294.5,528.5C 1294.5,529.5 1294.5,530.5 1294.5,531.5C 1284.83,531.5 1275.17,531.5 1265.5,531.5C 1265.5,530.5 1265.5,529.5 1265.5,528.5 Z"/></g>
<g><path style="opacity:1" fill="#bfa9d9" d="M 1326.5,528.5 C 1335.5,528.5 1344.5,528.5 1353.5,528.5C 1353.5,529.5 1353.5,530.5 1353.5,531.5C 1344.5,531.5 1335.5,531.5 1326.5,531.5C 1326.5,530.5 1326.5,529.5 1326.5,528.5 Z"/></g>
<g><path style="opacity:1" fill="#bfa9d9" d="M 1384.5,528.5 C 1394.5,528.5 1404.5,528.5 1414.5,528.5C 1414.5,529.5 1414.5,530.5 1414.5,531.5C 1404.5,531.5 1394.5,531.5 1384.5,531.5C 1384.5,530.5 1384.5,529.5 1384.5,528.5 Z"/></g>
<g><path style="opacity:1" fill="#c1abda" d="M 1466.5,528.5 C 1480.5,528.5 1494.5,528.5 1508.5,528.5C 1508.5,529.5 1508.5,530.5 1508.5,531.5C 1494.5,531.5 1480.5,531.5 1466.5,531.5C 1466.5,530.5 1466.5,529.5 1466.5,528.5 Z"/></g>
<g><path style="opacity:1" fill="#c0aada" d="M 1564.5,528.5 C 1573.83,528.5 1583.17,528.5 1592.5,528.5C 1592.5,529.5 1592.5,530.5 1592.5,531.5C 1583.17,531.5 1573.83,531.5 1564.5,531.5C 1564.5,530.5 1564.5,529.5 1564.5,528.5 Z"/></g>
<g><path style="opacity:1" fill="#bfa9d9" d="M 1624.5,528.5 C 1633.5,528.5 1642.5,528.5 1651.5,528.5C 1651.5,529.5 1651.5,530.5 1651.5,531.5C 1642.5,531.5 1633.5,531.5 1624.5,531.5C 1624.5,530.5 1624.5,529.5 1624.5,528.5 Z"/></g>
<g><path style="opacity:1" fill="#ef8f91" d="M 948.5,555.5 C 949.461,557.265 949.795,559.265 949.5,561.5C 950.061,567.779 949.227,573.779 947,579.5C 943.75,581.339 940.917,583.672 938.5,586.5C 934.85,591.12 931.683,596.12 929,601.5C 923.22,603.733 919.22,607.733 917,613.5C 915.4,614.866 913.567,615.866 911.5,616.5C 907.817,619.185 904.817,622.518 902.5,626.5C 896.465,628.562 892.132,632.228 889.5,637.5C 886.144,639.504 882.477,641.004 878.5,642C 875.572,643.287 873.238,645.287 871.5,648C 864.693,650.15 858.693,653.65 853.5,658.5C 848.259,659.538 843.425,661.538 839,664.5C 832.546,665.665 826.713,667.998 821.5,671.5C 805.888,676.556 789.888,679.556 773.5,680.5C 773.5,681.5 773.5,682.5 773.5,683.5C 750.49,686.063 727.49,686.063 704.5,683.5C 704.5,682.5 704.5,681.5 704.5,680.5C 690.635,679.765 676.968,677.765 663.5,674.5C 659.901,673.367 656.568,671.701 653.5,669.5C 648.128,668.098 642.795,666.598 637.5,665C 634.56,661.996 630.893,660.329 626.5,660C 622.895,657.521 619.228,655.021 615.5,652.5C 614.311,651.571 612.978,651.238 611.5,651.5C 611.068,650.29 610.401,649.29 609.5,648.5C 609.384,645.14 609.051,641.807 608.5,638.5C 608.5,636.167 608.5,633.833 608.5,631.5C 611.759,632.664 615.093,633.664 618.5,634.5C 618.561,636.592 619.561,638.092 621.5,639C 625.386,640.805 629.386,642.305 633.5,643.5C 638.939,647.851 645.272,650.518 652.5,651.5C 654.641,652.808 656.641,654.308 658.5,656C 708.031,671.205 757.864,672.372 808,659.5C 818.416,655.379 828.916,651.379 839.5,647.5C 842.36,645.14 845.36,642.973 848.5,641C 853.878,641.325 857.545,639.158 859.5,634.5C 865.246,632.128 870.913,629.462 876.5,626.5C 877.415,625.672 878.081,624.672 878.5,623.5C 883.869,620.821 888.869,617.655 893.5,614C 894.191,612.933 894.691,611.766 895,610.5C 897.589,609.663 899.422,607.997 900.5,605.5C 901.795,604.902 903.128,604.402 904.5,604C 906.833,601 909.167,598 911.5,595C 912.793,594.51 914.127,594.343 915.5,594.5C 917.075,587.259 921.408,582.592 928.5,580.5C 928.895,577.314 929.895,574.314 931.5,571.5C 936.044,565.885 940.044,559.885 943.5,553.5C 944.524,552.147 945.857,551.48 947.5,551.5C 947.232,553.099 947.566,554.432 948.5,555.5 Z"/></g>
<g><path style="opacity:1" fill="#f9a1a3" d="M 949.5,561.5 C 950.649,561.791 951.316,562.624 951.5,564C 951.972,567.677 952.638,571.177 953.5,574.5C 953.5,576.833 953.5,579.167 953.5,581.5C 953.667,592.838 953.5,604.172 953,615.5C 951.721,626.549 950.221,637.549 948.5,648.5C 947.94,650.801 947.44,653.134 947,655.5C 943.305,659.738 941.305,664.738 941,670.5C 937.572,676.972 933.906,683.306 930,689.5C 929.667,691.5 929.333,693.5 929,695.5C 922.668,699.437 918.668,705.103 917,712.5C 915.509,714.004 913.676,714.837 911.5,715C 908.692,720.308 904.692,724.475 899.5,727.5C 896.962,732.53 892.962,736.03 887.5,738C 884.702,743.132 880.369,746.132 874.5,747C 872.833,750 870.5,752.333 867.5,754C 853.633,758.931 839.967,764.431 826.5,770.5C 819.501,771.899 812.501,773.232 805.5,774.5C 796.531,775.373 787.531,776.04 778.5,776.5C 769.797,776.081 761.131,775.415 752.5,774.5C 744.202,772.765 735.702,771.432 727,770.5C 725.129,770.291 723.962,769.291 723.5,767.5C 718.833,766.167 714.167,764.833 709.5,763.5C 702.007,760.226 694.674,756.559 687.5,752.5C 685.712,750.424 684.046,748.257 682.5,746C 679.363,745.399 676.363,744.399 673.5,743C 671.963,741.89 671.297,740.39 671.5,738.5C 664.735,736.907 659.902,732.907 657,726.5C 653.8,723.579 650.466,720.913 647,718.5C 642.053,710.887 636.72,703.553 631,696.5C 630.023,694.26 629.523,691.927 629.5,689.5C 627.408,689.439 625.908,688.439 625,686.5C 622.42,680.678 620.42,674.678 619,668.5C 613.661,664.219 611.161,658.552 611.5,651.5C 612.978,651.238 614.311,651.571 615.5,652.5C 619.228,655.021 622.895,657.521 626.5,660C 630.893,660.329 634.56,661.996 637.5,665C 642.795,666.598 648.128,668.098 653.5,669.5C 656.568,671.701 659.901,673.367 663.5,674.5C 676.968,677.765 690.635,679.765 704.5,680.5C 704.5,681.5 704.5,682.5 704.5,683.5C 727.49,686.063 750.49,686.063 773.5,683.5C 773.5,682.5 773.5,681.5 773.5,680.5C 789.888,679.556 805.888,676.556 821.5,671.5C 826.713,667.998 832.546,665.665 839,664.5C 843.425,661.538 848.259,659.538 853.5,658.5C 858.693,653.65 864.693,650.15 871.5,648C 873.238,645.287 875.572,643.287 878.5,642C 882.477,641.004 886.144,639.504 889.5,637.5C 892.132,632.228 896.465,628.562 902.5,626.5C 904.817,622.518 907.817,619.185 911.5,616.5C 913.567,615.866 915.4,614.866 917,613.5C 919.22,607.733 923.22,603.733 929,601.5C 931.683,596.12 934.85,591.12 938.5,586.5C 940.917,583.672 943.75,581.339 947,579.5C 949.227,573.779 950.061,567.779 949.5,561.5 Z"/></g>
<g><path style="opacity:1" fill="#fcc5c6" d="M 953.5,581.5 C 954.83,587.295 955.496,593.462 955.5,600C 955.167,606.167 954.833,612.333 954.5,618.5C 953.321,628.806 951.321,638.806 948.5,648.5C 950.221,637.549 951.721,626.549 953,615.5C 953.5,604.172 953.667,592.838 953.5,581.5 Z"/></g>
<g><path style="opacity:1" fill="#fdd9da" d="M 604.5,590.5 C 604.5,600.167 604.5,609.833 604.5,619.5C 603.5,619.5 602.5,619.5 601.5,619.5C 601.5,609.833 601.5,600.167 601.5,590.5C 602.5,590.5 603.5,590.5 604.5,590.5 Z"/></g>
<g><path style="opacity:1" fill="#fcd4d4" d="M 752.5,774.5 C 761.131,775.415 769.797,776.081 778.5,776.5C 787.531,776.04 796.531,775.373 805.5,774.5C 803.975,776.036 801.975,777.036 799.5,777.5C 785.833,778.833 772.167,778.833 758.5,777.5C 756.025,777.036 754.025,776.036 752.5,774.5 Z"/></g>
</svg>
