<?xml version="1.0" encoding="UTF-8"?>
<!DOCTYPE svg PUBLIC "-//W3C//DTD SVG 1.1//EN" "http://www.w3.org/Graphics/SVG/1.1/DTD/svg11.dtd">
<svg xmlns="http://www.w3.org/2000/svg" version="1.1" width="4496px" height="1054px" style="shape-rendering:geometricPrecision; text-rendering:geometricPrecision; image-rendering:optimizeQuality; fill-rule:evenodd; clip-rule:evenodd" xmlns:xlink="http://www.w3.org/1999/xlink">
<g><path style="opacity:0.098" fill="#0aa5cf" d="M 317.5,229.5 C 316.711,229.217 316.044,228.717 315.5,228C 316.816,227.472 317.483,227.972 317.5,229.5 Z"/></g>
<g><path style="opacity:0.333" fill="#00a8de" d="M 317.5,229.5 C 318.906,229.973 319.573,230.973 319.5,232.5C 318.094,232.027 317.427,231.027 317.5,229.5 Z"/></g>
<g><path style="opacity:0.549" fill="#00a7de" d="M 319.5,232.5 C 320.906,232.973 321.573,233.973 321.5,235.5C 320.094,235.027 319.427,234.027 319.5,232.5 Z"/></g>
<g><path style="opacity:0.968" fill="#00a7dd" d="M 321.5,235.5 C 343.607,265.945 364.94,296.945 385.5,328.5C 409.297,367.752 430.797,408.418 450,450.5C 461.009,474.527 469.009,499.527 474,525.5C 479.023,578.674 470.023,629.341 447,677.5C 445.058,681.069 442.892,684.402 440.5,687.5C 454.694,645.506 458.527,602.506 452,558.5C 446.046,515.637 435.38,473.97 420,433.5C 404.392,391.617 386.059,350.95 365,311.5C 350.729,285.949 336.229,260.616 321.5,235.5 Z"/></g>
<g><path style="opacity:0.984" fill="#00a8de" d="M 637.5,304.5 C 690.093,300.322 740.76,308.155 789.5,328C 861.874,364.248 891.041,422.414 877,502.5C 873.799,518.437 868.799,533.77 862,548.5C 873.556,498.249 863.222,453.249 831,413.5C 801.924,384.709 767.091,366.542 726.5,359C 674.736,349.944 623.069,350.611 571.5,361C 530.095,369.524 490.095,382.358 451.5,399.5C 443.679,387.87 436.346,375.87 429.5,363.5C 495.1,330.435 564.433,310.769 637.5,304.5 Z"/></g>
<g><path style="opacity:0.981" fill="#2f2d2e" d="M 1455.5,345.5 C 1463.14,344.102 1469.64,346.102 1475,351.5C 1475.86,353.087 1476.53,354.754 1477,356.5C 1477.67,390.5 1477.67,424.5 1477,458.5C 1472.53,467.482 1465.36,470.649 1455.5,468C 1447.78,465.122 1444.45,459.622 1445.5,451.5C 1384.55,451.991 1323.55,451.658 1262.5,450.5C 1241.44,450.206 1220.44,451.039 1199.5,453C 1170.52,459.447 1159.02,477.28 1165,506.5C 1169.59,520.741 1179.42,528.908 1194.5,531C 1204.13,532.078 1213.8,532.745 1223.5,533C 1292.5,533.333 1361.5,533.667 1430.5,534C 1457.61,534.462 1483.94,539.129 1509.5,548C 1537.46,560.751 1554.3,582.251 1560,612.5C 1566.96,646.189 1566.96,679.856 1560,713.5C 1550.16,747.345 1528.99,771.178 1496.5,785C 1474.49,792.936 1451.82,797.936 1428.5,800C 1360.51,801.28 1292.51,801.947 1224.5,802C 1220.5,806 1216.5,810 1212.5,814C 1160.83,814.667 1109.17,814.667 1057.5,814C 1031.55,789.049 1024.39,759.549 1036,725.5C 1041.25,714.583 1048.41,705.083 1057.5,697C 1109.17,696.333 1160.83,696.333 1212.5,697C 1217.91,701.741 1222.58,707.074 1226.5,713C 1275.85,713.902 1325.18,713.568 1374.5,712C 1419.19,707.787 1434.69,684.287 1421,641.5C 1416.68,635.86 1411.18,631.694 1404.5,629C 1389.5,624.555 1374.17,622.222 1358.5,622C 1295.82,621.925 1233.15,621.258 1170.5,620C 1140.96,619.189 1112.29,613.855 1084.5,604C 1054.75,591.247 1036.25,569.081 1029,537.5C 1024.74,514.689 1023.41,491.689 1025,468.5C 1030.65,420.513 1056.81,390.013 1103.5,377C 1133.26,368.701 1163.59,364.034 1194.5,363C 1278.16,362.029 1361.83,361.529 1445.5,361.5C 1445.14,353.86 1448.47,348.526 1455.5,345.5 Z M 1065.5,706.5 C 1111.83,706.333 1158.17,706.5 1204.5,707C 1220.26,719.51 1229.26,735.844 1231.5,756C 1229.52,775.965 1220.52,791.965 1204.5,804C 1158.17,804.667 1111.83,804.667 1065.5,804C 1033.64,771.31 1033.64,738.81 1065.5,706.5 Z"/></g>
<g><path style="opacity:0.979" fill="#375988" d="M 385.5,328.5 C 427.22,388.239 466.72,449.572 504,512.5C 508.497,520.491 512.164,528.825 515,537.5C 515.831,545.888 515.497,554.221 514,562.5C 505.832,589.167 494.166,614.167 479,637.5C 466.443,656.723 453.109,675.39 439,693.5C 438.879,691.316 439.379,689.316 440.5,687.5C 442.892,684.402 445.058,681.069 447,677.5C 470.023,629.341 479.023,578.674 474,525.5C 469.009,499.527 461.009,474.527 450,450.5C 430.797,408.418 409.297,367.752 385.5,328.5 Z"/></g>
<g><path style="opacity:0.982" fill="#00a8de" d="M 525.5,817.5 C 596.712,788.816 658.879,746.816 712,691.5C 735.034,665.435 753.7,636.435 768,604.5C 782.301,571.879 785.635,538.212 778,503.5C 767.753,469.926 747.253,444.759 716.5,428C 679.979,409.228 641.145,400.394 600,401.5C 554.042,401.826 509.375,409.492 466,424.5C 463.959,420.916 461.792,417.416 459.5,414C 512.685,390.12 568.352,375.787 626.5,371C 665.702,367.897 704.036,372.23 741.5,384C 819.204,412.72 850.704,467.886 836,549.5C 827.697,581.434 814.03,610.767 795,637.5C 743.721,703.387 680.221,753.887 604.5,789C 578.98,800.784 552.647,810.284 525.5,817.5 Z"/></g>
<g><path style="opacity:0.908" fill="#302e2e" d="M 1479.5,370.5 C 1496.17,370.333 1512.84,370.5 1529.5,371C 1538.83,377.667 1538.83,384.333 1529.5,391C 1512.84,391.5 1496.17,391.667 1479.5,391.5C 1479.5,384.5 1479.5,377.5 1479.5,370.5 Z"/></g>
<g><path style="opacity:0.978" fill="#00a7dd" d="M 385.5,385.5 C 386.497,385.47 387.164,385.97 387.5,387C 392.309,399.098 397.309,411.098 402.5,423C 343.84,455.447 292.673,497.28 249,548.5C 228.805,573.532 212.139,600.865 199,630.5C 185.698,661.655 180.698,693.989 184,727.5C 178.495,716.152 175.162,704.152 174,691.5C 170.843,657.612 175.843,624.946 189,593.5C 211.377,542.603 243.21,498.437 284.5,461C 315.733,432.404 349.4,407.237 385.5,385.5 Z"/></g>
<g><path style="opacity:0.904" fill="#2f2d2e" d="M 1479.5,421.5 C 1495.5,421.333 1511.5,421.5 1527.5,422C 1535.98,425.447 1538.15,431.28 1534,439.5C 1531.96,441.604 1529.46,442.771 1526.5,443C 1510.84,443.5 1495.17,443.667 1479.5,443.5C 1479.5,436.167 1479.5,428.833 1479.5,421.5 Z"/></g>
<g><path style="opacity:0.965" fill="#385988" d="M 545.5,430.5 C 568.241,429.533 590.574,432.033 612.5,438C 636.678,445.821 654.511,460.987 666,483.5C 667.338,487.517 668.338,491.517 669,495.5C 653.788,471.457 631.954,457.29 603.5,453C 576.401,449.276 549.401,449.943 522.5,455C 511.468,457.907 500.468,460.574 489.5,463C 485.582,457.167 481.916,451.167 478.5,445C 500.342,437.533 522.676,432.699 545.5,430.5 Z"/></g>
<g><path style="opacity:0.869" fill="#00a8de" d="M 407.5,440.5 C 409.399,442.253 410.065,444.253 409.5,446.5C 393.833,454.165 378.5,461.998 363.5,470C 377.715,459.4 392.382,449.566 407.5,440.5 Z"/></g>
<g><path style="opacity:0.212" fill="#00a5de" d="M 680.5,442.5 C 679.833,441.167 679.833,441.167 680.5,442.5 Z"/></g>
<g><path style="opacity:0.388" fill="#00a8dc" d="M 680.5,442.5 C 681.492,442.328 682.158,442.662 682.5,443.5C 681.508,443.672 680.842,443.338 680.5,442.5 Z"/></g>
<g><path style="opacity:0.979" fill="#00a8de" d="M 682.5,443.5 C 720.566,460.751 743.066,490.084 750,531.5C 752.513,559.271 748.179,585.938 737,611.5C 725.211,637.591 709.878,661.258 691,682.5C 611.11,768.195 512.61,817.362 395.5,830C 355.132,833.413 316.132,827.747 278.5,813C 250.563,801.062 229.729,781.562 216,754.5C 213.162,747.995 211.162,741.329 210,734.5C 220.884,753.718 236.051,768.551 255.5,779C 287.816,795.39 322.149,803.223 358.5,802.5C 468.724,796.2 564.058,755.7 644.5,681C 671.268,654.964 692.768,625.13 709,591.5C 722.757,561.55 726.09,530.55 719,498.5C 712.16,476.519 699.993,458.185 682.5,443.5 Z"/></g>
<g><path style="opacity:0.977" fill="#385987" d="M 411.5,453.5 C 412.497,453.47 413.164,453.97 413.5,455C 414.547,456.578 414.547,458.078 413.5,459.5C 371.317,482.18 336.484,513.18 309,552.5C 297.878,569.412 290.045,587.746 285.5,607.5C 277.955,654.919 295.955,688.419 339.5,708C 373.24,720.441 407.907,723.774 443.5,718C 487.528,710.893 528.694,696.06 567,673.5C 567.167,673.833 567.333,674.167 567.5,674.5C 509.564,716.924 444.564,739.258 372.5,741.5C 337.83,743.073 306.163,734.24 277.5,715C 249.521,691.069 239.021,660.902 246,624.5C 253.353,594.458 267.02,567.791 287,544.5C 310.024,518.436 336.191,496.27 365.5,478C 380.451,469.026 395.784,460.859 411.5,453.5 Z"/></g>
<g><path style="opacity:0.972" fill="#385887" d="M 353.5,689.5 C 319.037,672.585 303.871,644.919 308,606.5C 310.885,589.848 316.551,574.181 325,559.5C 349.231,522.933 380.231,493.6 418,471.5C 419.991,479.13 421.824,486.797 423.5,494.5C 410.405,504.414 397.405,514.581 384.5,525C 367.245,540.724 352.745,558.558 341,578.5C 331.677,595.134 326.843,612.967 326.5,632C 327.014,655.193 336.014,674.36 353.5,689.5 Z"/></g>
<g><path style="opacity:0.02" fill="#336699" d="M 669.5,496.5 C 670.833,497.167 670.833,497.167 669.5,496.5 Z"/></g>
<g><path style="opacity:0.978" fill="#385888" d="M 688.5,496.5 C 696.076,514.338 698.576,533.005 696,552.5C 690.594,583.402 678.594,611.402 660,636.5C 620.135,687.362 570.635,725.862 511.5,752C 454.054,778.956 393.72,789.956 330.5,785C 301.672,782.062 275.672,772.062 252.5,755C 220.286,726.675 209.119,691.509 219,649.5C 220.954,639.347 224.287,629.68 229,620.5C 218.341,680.012 241.174,720.845 297.5,743C 331.155,753.568 365.488,756.568 400.5,752C 499.072,737.978 580.905,693.811 646,619.5C 668.191,592.636 682.524,561.97 689,527.5C 689.733,517.14 689.567,506.806 688.5,496.5 Z"/></g>
<g><path style="opacity:0.984" fill="#245234" d="M 1833.5,515.5 C 1840.75,515.187 1847.92,515.52 1855,516.5C 1855.5,601.833 1855.67,687.166 1855.5,772.5C 1804.5,772.5 1753.5,772.5 1702.5,772.5C 1702.5,713.833 1702.5,655.167 1702.5,596.5C 1680.84,598.036 1659.18,599.536 1637.5,601C 1636.1,602.269 1634.43,602.769 1632.5,602.5C 1632.5,577.833 1632.5,553.167 1632.5,528.5C 1665.58,526.535 1698.75,524.869 1732,523.5C 1765.14,521.002 1798.31,518.835 1831.5,517C 1832.42,516.722 1833.08,516.222 1833.5,515.5 Z"/></g>
<g><path style="opacity:0.989" fill="#235134" d="M 2086.5,568.5 C 2107.57,567.398 2128.4,569.065 2149,573.5C 2154.89,575.86 2160.72,578.36 2166.5,581C 2170.07,583.97 2173.73,586.803 2177.5,589.5C 2221.67,568.863 2267.84,563.529 2316,573.5C 2330.62,577.546 2342.79,585.213 2352.5,596.5C 2355.06,601.621 2357.06,606.954 2358.5,612.5C 2359.5,665.829 2359.83,719.163 2359.5,772.5C 2310.5,772.5 2261.5,772.5 2212.5,772.5C 2212.67,729.499 2212.5,686.499 2212,643.5C 2211.17,642.667 2210.33,641.833 2209.5,641C 2204.18,640.501 2198.84,640.334 2193.5,640.5C 2193.5,684.5 2193.5,728.5 2193.5,772.5C 2144.83,772.5 2096.17,772.5 2047.5,772.5C 2048.1,728.767 2047.43,685.1 2045.5,641.5C 2039.55,640.637 2033.55,640.303 2027.5,640.5C 2027.5,684.5 2027.5,728.5 2027.5,772.5C 1978.5,772.5 1929.5,772.5 1880.5,772.5C 1880.5,705.833 1880.5,639.167 1880.5,572.5C 1922.83,572.5 1965.17,572.5 2007.5,572.5C 2009.5,578.182 2011.5,583.848 2013.5,589.5C 2014.87,589.657 2016.21,589.49 2017.5,589C 2022.2,585.483 2027.37,582.65 2033,580.5C 2039.6,578.489 2046.1,576.323 2052.5,574C 2064.12,572.472 2075.46,570.639 2086.5,568.5 Z"/></g>
<g><path style="opacity:0.988" fill="#235134" d="M 2512.5,568.5 C 2552.71,566.856 2592.37,569.689 2631.5,577C 2643.26,580.281 2654.59,584.781 2665.5,590.5C 2689.46,605.533 2702.79,627.367 2705.5,656C 2709.17,682.47 2705,707.304 2693,730.5C 2683.79,743.532 2671.95,753.532 2657.5,760.5C 2654.51,760.993 2651.85,762.16 2649.5,764C 2641.69,765.755 2634.02,767.755 2626.5,770C 2564.43,780.785 2502.43,779.785 2440.5,767C 2421.7,761.515 2405.2,752.015 2391,738.5C 2386.62,732.104 2382.62,725.437 2379,718.5C 2366.64,683.257 2368.47,648.923 2384.5,615.5C 2391.29,606.05 2399.29,597.883 2408.5,591C 2424.17,582.578 2440.84,576.911 2458.5,574C 2476.78,572.269 2494.78,570.435 2512.5,568.5 Z M 2531.5,640.5 C 2538.29,640.127 2544.95,640.794 2551.5,642.5C 2552.47,644.305 2553.64,645.972 2555,647.5C 2559.67,663.833 2559.67,680.167 2555,696.5C 2550.95,701.898 2545.45,704.231 2538.5,703.5C 2531.2,704.297 2525.7,701.63 2522,695.5C 2518.85,679.823 2518.85,664.156 2522,648.5C 2524.19,644.458 2527.36,641.791 2531.5,640.5 Z"/></g>
<g><path style="opacity:0.981" fill="#245234" d="M 2928.5,568.5 C 2950.4,567.376 2972.07,569.043 2993.5,573.5C 3000.36,576.901 3007.36,580.068 3014.5,583C 3017.65,585.98 3020.98,588.813 3024.5,591.5C 3031.16,598.428 3034.66,606.761 3035,616.5C 3035.5,668.499 3035.67,720.499 3035.5,772.5C 2986.17,772.5 2936.83,772.5 2887.5,772.5C 2887.83,729.828 2887.5,687.161 2886.5,644.5C 2885.53,642.364 2883.86,641.197 2881.5,641C 2876.81,640.436 2872.14,640.603 2867.5,641.5C 2867.17,684.876 2867.51,728.209 2868.5,771.5C 2818.17,772.833 2767.83,772.833 2717.5,771.5C 2718.03,770.808 2718.69,770.308 2719.5,770C 2718.66,704.825 2718.16,639.658 2718,574.5C 2718.5,574 2719,573.5 2719.5,573C 2762.17,572.333 2804.83,572.333 2847.5,573C 2848.93,576.585 2850.26,580.251 2851.5,584C 2851.17,586.685 2851.17,589.518 2851.5,592.5C 2853.6,592.799 2855.6,592.466 2857.5,591.5C 2869.03,583.264 2881.7,577.43 2895.5,574C 2906.69,572.449 2917.69,570.615 2928.5,568.5 Z"/></g>
<g><path style="opacity:0.027" fill="#494992" d="M 353.5,689.5 C 354.833,690.167 354.833,690.167 353.5,689.5 Z"/></g>
<g><path style="opacity:0.89" fill="#2f2e2e" d="M 1095.5,713.5 C 1103.17,713.5 1110.83,713.5 1118.5,713.5C 1118.5,733.167 1118.5,752.833 1118.5,772.5C 1110.83,772.5 1103.17,772.5 1095.5,772.5C 1095.5,752.833 1095.5,733.167 1095.5,713.5 Z"/></g>
<g><path style="opacity:0.89" fill="#2f2e2e" d="M 1151.5,713.5 C 1159.17,713.5 1166.83,713.5 1174.5,713.5C 1174.5,733.167 1174.5,752.833 1174.5,772.5C 1166.83,772.5 1159.17,772.5 1151.5,772.5C 1151.5,752.833 1151.5,733.167 1151.5,713.5 Z"/></g>
<g><path style="opacity:0.118" fill="#00aadd" d="M 208.5,732.5 C 209.833,733.167 209.833,733.167 208.5,732.5 Z"/></g>
<g><path style="opacity:0.864" fill="#2f2d2e" d="M 1129.5,780.5 C 1135.86,779.901 1141.86,781.068 1147.5,784C 1149.05,785.214 1150.22,786.714 1151,788.5C 1151.5,791.817 1151.67,795.15 1151.5,798.5C 1140.17,798.5 1128.83,798.5 1117.5,798.5C 1115.62,788.406 1119.62,782.406 1129.5,780.5 Z"/></g>
<g><path style="opacity:0.149" fill="#00a5da" d="M 525.5,817.5 C 525.103,818.525 524.437,818.692 523.5,818C 524.094,817.536 524.761,817.369 525.5,817.5 Z"/></g>
</svg>
